<svg viewBox="0 0 330 200" xmlns="http://www.w3.org/2000/svg"><g><g><g><g><g><line x1="41.171875" y1="177" x2="36.171875" y2="177" style="visibility: inherit;" fill="rgb(0, 0, 0)" stroke="rgb(204, 204, 204)" stroke-width="1px"></line><line x1="41.171875" y1="164.35714285714286" x2="36.171875" y2="164.35714285714286" style="visibility: inherit;" fill="rgb(0, 0, 0)" stroke="rgb(204, 204, 204)" stroke-width="1px"></line><line x1="41.171875" y1="151.71428571428572" x2="36.171875" y2="151.71428571428572" style="visibility: inherit;" fill="rgb(0, 0, 0)" stroke="rgb(204, 204, 204)" stroke-width="1px"></line><line x1="41.171875" y1="139.07142857142856" x2="36.171875" y2="139.07142857142856" style="visibility: inherit;" fill="rgb(0, 0, 0)" stroke="rgb(204, 204, 204)" stroke-width="1px"></line><line x1="41.171875" y1="126.42857142857143" x2="36.171875" y2="126.42857142857143" style="visibility: inherit;" fill="rgb(0, 0, 0)" stroke="rgb(204, 204, 204)" stroke-width="1px"></line><line x1="41.171875" y1="113.78571428571428" x2="36.171875" y2="113.78571428571428" style="visibility: inherit;" fill="rgb(0, 0, 0)" stroke="rgb(204, 204, 204)" stroke-width="1px"></line><line x1="41.171875" y1="101.14285714285714" x2="36.171875" y2="101.14285714285714" style="visibility: inherit;" fill="rgb(0, 0, 0)" stroke="rgb(204, 204, 204)" stroke-width="1px"></line><line x1="41.171875" y1="88.5" x2="36.171875" y2="88.5" style="visibility: inherit;" fill="rgb(0, 0, 0)" stroke="rgb(204, 204, 204)" stroke-width="1px"></line><line x1="41.171875" y1="75.85714285714286" x2="36.171875" y2="75.85714285714286" style="visibility: inherit;" fill="rgb(0, 0, 0)" stroke="rgb(204, 204, 204)" stroke-width="1px"></line><line x1="41.171875" y1="63.21428571428571" x2="36.171875" y2="63.21428571428571" style="visibility: inherit;" fill="rgb(0, 0, 0)" stroke="rgb(204, 204, 204)" stroke-width="1px"></line><line x1="41.171875" y1="50.57142857142857" x2="36.171875" y2="50.57142857142857" style="visibility: inherit;" fill="rgb(0, 0, 0)" stroke="rgb(204, 204, 204)" stroke-width="1px"></line><line x1="41.171875" y1="37.92857142857143" x2="36.171875" y2="37.92857142857143" style="visibility: inherit;" fill="rgb(0, 0, 0)" stroke="rgb(204, 204, 204)" stroke-width="1px"></line><line x1="41.171875" y1="25.285714285714295" x2="36.171875" y2="25.285714285714295" style="visibility: inherit;" fill="rgb(0, 0, 0)" stroke="rgb(204, 204, 204)" stroke-width="1px"></line><line x1="41.171875" y1="12.642857142857137" x2="36.171875" y2="12.642857142857137" style="visibility: inherit;" fill="rgb(0, 0, 0)" stroke="rgb(204, 204, 204)" stroke-width="1px"></line><line x1="41.171875" y1="0" x2="36.171875" y2="0" style="visibility: inherit;" fill="rgb(0, 0, 0)" stroke="rgb(204, 204, 204)" stroke-width="1px"></line></g><g transform="translate(31.171875, 0)"><text x="0" y="177" dx="0em" dy="0.3em" style="text-anchor: end; visibility: hidden; font-family: Roboto, sans-serif; font-size: 12px; font-weight: 200;" fill="rgb(33, 33, 33)" stroke="none" stroke-width="1px">-10</text><text x="0" y="164.35714285714286" dx="0em" dy="0.3em" style="text-anchor: end; visibility: inherit; font-family: Roboto, sans-serif; font-size: 12px; font-weight: 200;" fill="rgb(33, 33, 33)" stroke="none" stroke-width="1px">0</text><text x="0" y="151.71428571428572" dx="0em" dy="0.3em" style="text-anchor: end; visibility: hidden; font-family: Roboto, sans-serif; font-size: 12px; font-weight: 200;" fill="rgb(33, 33, 33)" stroke="none" stroke-width="1px">10</text><text x="0" y="139.07142857142856" dx="0em" dy="0.3em" style="text-anchor: end; visibility: inherit; font-family: Roboto, sans-serif; font-size: 12px; font-weight: 200;" fill="rgb(33, 33, 33)" stroke="none" stroke-width="1px">20</text><text x="0" y="126.42857142857143" dx="0em" dy="0.3em" style="text-anchor: end; visibility: hidden; font-family: Roboto, sans-serif; font-size: 12px; font-weight: 200;" fill="rgb(33, 33, 33)" stroke="none" stroke-width="1px">30</text><text x="0" y="113.78571428571428" dx="0em" dy="0.3em" style="text-anchor: end; visibility: inherit; font-family: Roboto, sans-serif; font-size: 12px; font-weight: 200;" fill="rgb(33, 33, 33)" stroke="none" stroke-width="1px">40</text><text x="0" y="101.14285714285714" dx="0em" dy="0.3em" style="text-anchor: end; visibility: hidden; font-family: Roboto, sans-serif; font-size: 12px; font-weight: 200;" fill="rgb(33, 33, 33)" stroke="none" stroke-width="1px">50</text><text x="0" y="88.5" dx="0em" dy="0.3em" style="text-anchor: end; visibility: inherit; font-family: Roboto, sans-serif; font-size: 12px; font-weight: 200;" fill="rgb(33, 33, 33)" stroke="none" stroke-width="1px">60</text><text x="0" y="75.85714285714286" dx="0em" dy="0.3em" style="text-anchor: end; visibility: hidden; font-family: Roboto, sans-serif; font-size: 12px; font-weight: 200;" fill="rgb(33, 33, 33)" stroke="none" stroke-width="1px">70</text><text x="0" y="63.21428571428571" dx="0em" dy="0.3em" style="text-anchor: end; visibility: inherit; font-family: Roboto, sans-serif; font-size: 12px; font-weight: 200;" fill="rgb(33, 33, 33)" stroke="none" stroke-width="1px">80</text><text x="0" y="50.57142857142857" dx="0em" dy="0.3em" style="text-anchor: end; visibility: hidden; font-family: Roboto, sans-serif; font-size: 12px; font-weight: 200;" fill="rgb(33, 33, 33)" stroke="none" stroke-width="1px">90</text><text x="0" y="37.92857142857143" dx="0em" dy="0.3em" style="text-anchor: end; visibility: inherit; font-family: Roboto, sans-serif; font-size: 12px; font-weight: 200;" fill="rgb(33, 33, 33)" stroke="none" stroke-width="1px">100</text><text x="0" y="25.285714285714295" dx="0em" dy="0.3em" style="text-anchor: end; visibility: hidden; font-family: Roboto, sans-serif; font-size: 12px; font-weight: 200;" fill="rgb(33, 33, 33)" stroke="none" stroke-width="1px">110</text><text x="0" y="12.642857142857137" dx="0em" dy="0.3em" style="text-anchor: end; visibility: inherit; font-family: Roboto, sans-serif; font-size: 12px; font-weight: 200;" fill="rgb(33, 33, 33)" stroke="none" stroke-width="1px">120</text><text x="0" y="0" dx="0em" dy="0.3em" style="text-anchor: end; visibility: hidden; font-family: Roboto, sans-serif; font-size: 12px; font-weight: 200;" fill="rgb(33, 33, 33)" stroke="none" stroke-width="1px">130</text></g><line x1="41.171875" y1="0" x2="41.171875" y2="177" fill="rgb(0, 0, 0)" stroke="rgb(204, 204, 204)" stroke-width="1px"></line></g></g><g transform="translate(41, 0)" clip-path="url(#clip_0)"><clipPath id="clip_0"><rect width="288" height="177"></rect></clipPath><g><g><g><line x1="0" y1="0" x2="0" y2="177" fill="rgb(0, 0, 0)" stroke="rgb(66, 66, 66)" stroke-width="1px" opacity="0.25"></line><line x1="24.069010416666664" y1="0" x2="24.069010416666664" y2="177" fill="rgb(0, 0, 0)" stroke="rgb(66, 66, 66)" stroke-width="1px" opacity="0.25"></line><line x1="48.13802083333333" y1="0" x2="48.13802083333333" y2="177" fill="rgb(0, 0, 0)" stroke="rgb(66, 66, 66)" stroke-width="1px" opacity="0.25"></line><line x1="72.20703125" y1="0" x2="72.20703125" y2="177" fill="rgb(0, 0, 0)" stroke="rgb(66, 66, 66)" stroke-width="1px" opacity="0.25"></line><line x1="96.27604166666666" y1="0" x2="96.27604166666666" y2="177" fill="rgb(0, 0, 0)" stroke="rgb(66, 66, 66)" stroke-width="1px" opacity="0.25"></line><line x1="120.34505208333334" y1="0" x2="120.34505208333334" y2="177" fill="rgb(0, 0, 0)" stroke="rgb(66, 66, 66)" stroke-width="1px" opacity="0.25"></line><line x1="144.4140625" y1="0" x2="144.4140625" y2="177" fill="rgb(0, 0, 0)" stroke="rgb(66, 66, 66)" stroke-width="1px" opacity="0.25"></line><line x1="168.48307291666669" y1="0" x2="168.48307291666669" y2="177" fill="rgb(0, 0, 0)" stroke="rgb(66, 66, 66)" stroke-width="1px" opacity="0.25"></line><line x1="192.55208333333331" y1="0" x2="192.55208333333331" y2="177" fill="rgb(0, 0, 0)" stroke="rgb(66, 66, 66)" stroke-width="1px" opacity="0.25"></line><line x1="216.62109375" y1="0" x2="216.62109375" y2="177" fill="rgb(0, 0, 0)" stroke="rgb(66, 66, 66)" stroke-width="1px" opacity="0.25"></line><line x1="240.69010416666669" y1="0" x2="240.69010416666669" y2="177" fill="rgb(0, 0, 0)" stroke="rgb(66, 66, 66)" stroke-width="1px" opacity="0.25"></line><line x1="264.7591145833333" y1="0" x2="264.7591145833333" y2="177" fill="rgb(0, 0, 0)" stroke="rgb(66, 66, 66)" stroke-width="1px" opacity="0.25"></line><line x1="288.828125" y1="0" x2="288.828125" y2="177" fill="rgb(0, 0, 0)" stroke="rgb(66, 66, 66)" stroke-width="1px" opacity="0.25"></line></g><g><line x1="0" y1="177" x2="288.828125" y2="177" fill="rgb(0, 0, 0)" stroke="rgb(66, 66, 66)" stroke-width="1px" opacity="0.25"></line><line x1="0" y1="164.35714285714286" x2="288.828125" y2="164.35714285714286" fill="rgb(0, 0, 0)" stroke="rgb(66, 66, 66)" stroke-width="1px" opacity="0.25"></line><line x1="0" y1="151.71428571428572" x2="288.828125" y2="151.71428571428572" fill="rgb(0, 0, 0)" stroke="rgb(66, 66, 66)" stroke-width="1px" opacity="0.25"></line><line x1="0" y1="139.07142857142856" x2="288.828125" y2="139.07142857142856" fill="rgb(0, 0, 0)" stroke="rgb(66, 66, 66)" stroke-width="1px" opacity="0.25"></line><line x1="0" y1="126.42857142857143" x2="288.828125" y2="126.42857142857143" fill="rgb(0, 0, 0)" stroke="rgb(66, 66, 66)" stroke-width="1px" opacity="0.25"></line><line x1="0" y1="113.78571428571428" x2="288.828125" y2="113.78571428571428" fill="rgb(0, 0, 0)" stroke="rgb(66, 66, 66)" stroke-width="1px" opacity="0.25"></line><line x1="0" y1="101.14285714285714" x2="288.828125" y2="101.14285714285714" fill="rgb(0, 0, 0)" stroke="rgb(66, 66, 66)" stroke-width="1px" opacity="0.25"></line><line x1="0" y1="88.5" x2="288.828125" y2="88.5" fill="rgb(0, 0, 0)" stroke="rgb(66, 66, 66)" stroke-width="1px" opacity="0.25"></line><line x1="0" y1="75.85714285714286" x2="288.828125" y2="75.85714285714286" fill="rgb(0, 0, 0)" stroke="rgb(66, 66, 66)" stroke-width="1px" opacity="0.25"></line><line x1="0" y1="63.21428571428571" x2="288.828125" y2="63.21428571428571" fill="rgb(0, 0, 0)" stroke="rgb(66, 66, 66)" stroke-width="1px" opacity="0.25"></line><line x1="0" y1="50.57142857142857" x2="288.828125" y2="50.57142857142857" fill="rgb(0, 0, 0)" stroke="rgb(66, 66, 66)" stroke-width="1px" opacity="0.25"></line><line x1="0" y1="37.92857142857143" x2="288.828125" y2="37.92857142857143" fill="rgb(0, 0, 0)" stroke="rgb(66, 66, 66)" stroke-width="1px" opacity="0.25"></line><line x1="0" y1="25.285714285714295" x2="288.828125" y2="25.285714285714295" fill="rgb(0, 0, 0)" stroke="rgb(66, 66, 66)" stroke-width="1px" opacity="0.25"></line><line x1="0" y1="12.642857142857137" x2="288.828125" y2="12.642857142857137" fill="rgb(0, 0, 0)" stroke="rgb(66, 66, 66)" stroke-width="1px" opacity="0.25"></line><line x1="0" y1="0" x2="288.828125" y2="0" fill="rgb(0, 0, 0)" stroke="rgb(66, 66, 66)" stroke-width="1px" opacity="0.25"></line></g></g></g><g><g><line x1="0" y1="164.35714285714286" x2="288.828125" y2="164.35714285714286" fill="rgb(0, 0, 0)" stroke="rgb(153, 153, 153)" stroke-width="1.5px"></line></g></g><g><g><line x1="24.069010416666664" y1="0" x2="24.069010416666664" y2="177" fill="rgb(0, 0, 0)" stroke="rgb(153, 153, 153)" stroke-width="1.5px"></line></g></g><g><g><g><g><g><path stroke="rgb(255, 112, 67)" stroke-width="2px" d="M24.550390625000002,148.8282457760402L25.031770833333333,152.94301514114653L25.513151041666667,155.9047780631235L25.994531249999998,156.0554316915384L26.475911458333332,154.0740351579087L26.957291666666666,151.79013422013097L27.438671875,149.6831289851843L27.92005208333333,147.36184825023864L28.401432291666666,148.01750465756498L28.8828125,143.84227988257933L29.364192708333334,145.64878968688092L29.845572916666665,143.79985721017226L30.326953125,131.9200520754503L30.808333333333334,129.82284192050264L31.289713541666668,70.40448322175615L31.77109375,97.05313426630836L32.25247395833333,116.64475306259071L32.73385416666667,126.4616605531564L33.215234375,137.23708898917624L33.696614583333336,130.80099992629295L34.17799479166666,125.47670479742695L34.659375,132.91246076509947L35.14075520833334,132.6698059004243L35.622135416666666,89.65407453866267L36.103515625,108.16754192408183L36.584895833333334,115.4342734848316L37.06627604166666,124.15577442783723L37.54765625,123.39600706733086L38.02903645833333,132.08275801536408L38.510416666666664,126.8838499685564L38.991796875000006,133.24392024771743L39.47317708333333,107.9715224744093L39.95455729166667,119.12934451257942L40.4359375,103.35895419533487L40.917317708333336,62.28793711877825L41.39869791666667,83.7878344164182L41.880078125,94.17289622280491L42.36145833333333,108.81984051895716L42.84283854166667,111.31210880649856L43.32421875,95.50857025980918L43.805598958333334,64.00562106041072L44.28697916666666,66.98408912501932L44.768359375,69.32862782697205L45.24973958333334,81.88755638062737L45.731119791666664,83.68216780291077L46.2125,94.64197546095959L46.69388020833333,113.62253797002631L47.17526041666667,103.99931251132678L47.656640625,114.93696724588736L48.13802083333333,103.65647718974382L48.61940104166667,92.46291114638127L49.100781250000004,79.84047221269441L49.58216145833333,88.28270348710751L50.063541666666666,95.96936513426476L50.544921875,94.85522391497848L51.026302083333334,28.133140844846405L51.50768229166667,51.41475857830683L51.989062499999996,66.42225265805965L52.47044270833334,17.485657197859133L52.951822916666664,53.32773861803364L53.433203125,82.9127977543433L53.91458333333333,107.21423032431575L54.39596354166667,118.88433225107325L54.87734375,106.81547795607774L55.358723958333336,99.04219540401772L55.84010416666666,97.99099522310608L56.321484375000004,84.1921402072453L56.80286458333333,88.42535889241361L57.284244791666666,94.44477083602364L57.765625,108.35350774784744L58.247005208333334,114.63058577249646L58.72838541666667,121.78055143210838L59.209765624999996,121.73029561364211L59.69114583333333,125.77756868964L60.17252604166667,128.97579911892666L60.65390625,130.85875010559846L61.13528645833333,118.3542923236653L61.61666666666667,118.27542249895293L62.098046875,122.53977383388802L62.579427083333336,126.21695513154445L63.06080729166666,127.54335975168232L63.5421875,128.83183815805108L64.02356770833333,115.4180811227185L64.50494791666667,127.18023162455013L64.986328125,125.63654295988981L65.46770833333333,131.24671738447182L65.94908854166667,125.29780117827657L66.43046875,123.32716635934456L66.91184895833334,100.11589170839413L67.39322916666667,95.99804989799617L67.87460937499999,105.54303243818735L68.35598958333333,103.96078529412404L68.83736979166667,109.28873827285767L69.31875,102.69685855558123L69.80013020833333,98.91885534810528L70.28151041666668,102.11104722637154L70.762890625,108.34756074592686L71.24427083333333,114.22325001828715L71.72565104166667,123.85104330974809L72.20703125,121.22134011897523L72.68841145833333,118.5043955412861L73.16979166666667,129.33805387063956L73.651171875,135.4980973457515L74.13255208333332,137.38609801621553L74.61393229166667,129.9353618344573L75.0953125,108.55341262243776L75.57669270833333,120.02984850948037L76.05807291666666,109.1111097674837L76.53945312500001,113.10544003477177L77.02083333333333,120.48833506142527L77.50221354166666,130.1480751782213L77.98359375000001,132.5647570484611L78.46497395833333,139.66234372884995L78.94635416666667,123.89864078233649L79.427734375,123.27218471790216L79.90911458333333,129.28561571987532L80.39049479166667,129.5290964718073L80.871875,140.1223521696488L81.35325520833334,103.5775340522078L81.83463541666667,108.69554266991985L82.31601562499999,117.13917822602764L82.79739583333334,118.42344260892155L83.27877604166666,82.05906155447123L83.76015625,104.0889967427762L84.24153645833334,126.15855205453107L84.72291666666666,133.28961524586737L85.204296875,131.42523691768818L85.68567708333335,139.39754782949822L86.16705729166667,146.49824589239236L86.6484375,135.96068716817817L87.12981770833333,141.45008499334205L87.61119791666667,142.16258782963212L88.092578125,139.97580321221844L88.57395833333332,140.90424558394727L89.05533854166667,124.09855482281534L89.53671875,134.60081907162413L90.01809895833333,136.39821281530638L90.49947916666667,134.4150225127486L90.980859375,139.21513791964085L91.46223958333333,143.776733110802L91.94361979166668,143.47116416021726L92.425,142.61967626407468L92.90638020833333,137.4149742677919L93.38776041666667,128.89900298021337L93.869140625,126.84039883010276L94.35052083333333,131.85356374787332L94.83190104166665,126.00367087419485L95.31328125,131.31627374382495L95.79466145833334,136.62456691200543L96.27604166666666,135.7964417201664L96.757421875,142.48355148142323L97.23880208333334,135.6439145889795L97.72018229166666,132.69307070228385L98.20156250000001,139.7362800107432L98.68294270833333,144.09496273366236L99.16432291666666,146.63703647917797L99.645703125,143.64435372017454L100.12708333333333,148.91810771332334L100.60846354166667,142.8260258262013L101.08984375,140.43362519377115L101.57122395833333,140.24774920858272L102.05260416666667,145.6159354933852L102.53398437499999,142.40422073620795L103.01536458333334,144.0231312429289L103.49674479166667,139.06225773920042L103.97812499999999,138.5658458599073L104.45950520833334,142.34620274561098L104.94088541666667,142.0943076513513L105.422265625,139.92900136501558L105.90364583333333,139.08586213361943L106.38502604166668,141.74588517938517L106.86640625,140.5718900205078L107.34778645833333,138.0026377365391L107.82916666666667,138.26459468328787L108.310546875,104.91292699342695L108.79192708333333,116.26711852581168L109.27330729166667,121.73042957801142L109.7546875,129.9723648733153L110.23606770833332,135.8003359864761L110.71744791666667,145.02998644977185L111.198828125,126.92621526725429L111.68020833333333,134.8599501065283L112.16158854166666,136.80284461705244L112.64296875000001,141.25270506560673L113.12434895833333,140.89199231840806L113.60572916666666,143.13718987826235L114.08710937500001,144.39616520989458L114.56848958333333,144.7621834551604L115.04986979166667,139.7286058494634L115.53125,129.10565275877124L116.01263020833333,136.86368642237002L116.49401041666667,140.0809275691028L116.975390625,139.9501919621247L117.45677083333334,142.29247837405654L117.93815104166667,142.04157873629566L118.41953124999999,140.25793893445666L118.90091145833334,117.14113436287127L119.38229166666666,126.3204168270472L119.863671875,126.1106893782369L120.34505208333334,130.62815227876274L120.82643229166666,136.4054305398389L121.3078125,141.95794560864542L121.78919270833335,139.86288546603478L122.27057291666667,140.81246548241452L122.751953125,144.11734060885442L123.23333333333333,143.6629641252701L123.71471354166667,145.1844419610978L124.19609375,145.25904150798803L124.67747395833332,141.50499605107666L125.15885416666667,140.1128911297479L125.640234375,145.01488984556462L126.12161458333333,144.16827182848135L126.60299479166667,143.7066487725736L127.084375,142.84451452555936L127.56575520833333,148.94411670211278L128.04713541666666,146.54323778467798L128.528515625,137.61537974683043L129.00989583333333,139.79078847344704L129.49127604166665,139.99770189287995L129.97265625,140.53049438096724L130.45403645833332,136.78662158956143L130.93541666666667,144.26788082716303L131.41679687500002,135.12087480628665L131.89817708333334,135.23052788430388L132.37955729166666,131.9504700399957L132.8609375,140.65035823619922L133.34231770833333,136.38574843803124L133.82369791666667,141.55896283387588L134.305078125,144.5946440413987L134.78645833333334,143.59171128620224L135.26783854166666,139.59761432447314L135.74921874999998,142.77219866060184L136.23059895833333,145.57349327734605L136.71197916666665,147.12743346139405L137.193359375,143.23442724646182L137.67473958333335,146.3383817964855L138.15611979166667,148.7348528328831L138.6375,145.24948166236763L139.11888020833334,142.43658921801907L139.60026041666666,140.73352475011947L140.081640625,138.84589458509194L140.56302083333335,137.82542885833752L141.04440104166667,142.95659593586956L141.52578125,136.57672846497283L142.00716145833331,140.50755999332523L142.48854166666666,144.66294060785512L142.969921875,147.0070242180761L143.45130208333333,149.87159065127676L143.93268229166668,146.69903448414985L144.4140625,146.7886760724828L144.89544270833335,143.01512906289713L145.37682291666667,146.54054095996815L145.858203125,147.01607930402565L146.33958333333334,147.91792148912316L146.82096354166666,145.78285200148866L147.30234375,138.23521291532717L147.78372395833335,143.60608441423534L148.26510416666665,146.1978283632978L148.746484375,148.1012265764329L149.22786458333334,144.2858846209609L149.70924479166666,144.0447968400814L150.190625,144.33731586780792L150.67200520833333,144.8017498286507L151.15338541666665,145.83871444688177L151.634765625,143.99772083383078L152.11614583333332,144.48072093261047L152.59752604166667,150.48818156338535L153.07890625000002,147.72797789685862L153.5602864583333,144.51747355255958L154.04166666666666,148.25782487337446L154.523046875,147.59894206899625L155.00442708333333,150.52435905341383L155.48580729166667,151.21808217442762L155.96718750000002,147.38892541113677L156.44856770833331,151.09456732450406L156.92994791666666,147.30354063753515L157.411328125,149.64458655434814L157.89270833333333,152.548834037973L158.37408854166668,152.4821301761146L158.85546875,150.60947665793665L159.33684895833332,151.15978264720167L159.81822916666667,154.78408899254157L160.29960937500002,152.65362401930423L160.78098958333334,153.35986520639108L161.26236979166666,146.40577375117144L161.74375,149.59175385625224L162.22513020833333,147.84084519040368L162.70651041666667,148.97302457302166L163.187890625,149.8089827894019L163.66927083333334,154.28105095004975L164.15065104166666,150.72485997611417L164.63203124999998,150.78107919585614L165.11341145833333,151.6037990154908L165.59479166666668,146.60454295800926L166.076171875,147.21944764195817L166.55755208333332,148.34223547098685L167.03893229166667,151.43787397454767L167.5203125,152.55647339018253L168.00169270833334,147.1083158839979L168.48307291666669,144.77676106490975L168.96445312499998,149.61922825590884L169.44583333333333,152.05019823594844L169.92721354166667,152.16378937243365L170.40859375,153.32995032732197L170.88997395833334,154.5900937361816L171.3713541666667,154.4898770473948L171.85273437499998,153.48395382777161L172.33411458333333,152.724533989691L172.81549479166668,153.7150641688826L173.296875,153.24154737867505L173.77825520833335,151.69599418822622L174.25963541666667,149.64063702829046L174.741015625,149.11857765917398L175.22239583333334,146.07439827615102L175.70377604166666,149.15628904296548L176.18515625,149.49699315561153L176.66653645833335,150.0241483960263L177.14791666666665,148.95120787480886L177.629296875,146.22072008185378L178.11067708333334,149.2328631725733L178.59205729166666,150.75171021638403L179.0734375,152.9093934748229L179.55481770833333,153.30255311195847L180.03619791666665,153.74569979859555L180.517578125,154.16440542363452L180.99895833333335,151.95936083143377L181.48033854166667,152.40503479567423L181.96171875,155.02890682585817L182.44309895833334,152.74136900439814L182.92447916666666,154.20340069493625L183.405859375,154.244964393315L183.88723958333335,153.61421114124238L184.36861979166665,155.26604788901264L184.85,153.8433039108455L185.33138020833334,152.83767547264083L185.81276041666666,149.33998580726612L186.294140625,151.50820679976974L186.77552083333333,150.98268218772841L187.25690104166665,151.52043569868005L187.73828125,153.94518755086523L188.21966145833332,154.42303378808313L188.70104166666667,156.58299694810142L189.18242187500002,157.0163657287843L189.6638020833333,155.93718286293412L190.14518229166666,154.921464108368L190.6265625,154.898856676015L191.10794270833333,154.4474679864091L191.58932291666667,151.09366607169164L192.07070312500002,152.44638573757152L192.55208333333331,152.96177243353586L193.03346354166666,153.89357729275878L193.51484375,154.02797925594786L193.99622395833333,155.62230023117013L194.47760416666668,155.13075530273406L194.958984375,156.16967740927325L195.44036458333332,151.01040439173093L195.92174479166667,154.38621993282146L196.40312500000002,154.15298677711056L196.88450520833334,156.43313514760442L197.36588541666666,154.99258305225982L197.847265625,155.68257727074578L198.32864583333333,157.01086355697743L198.81002604166667,157.50968880973664L199.29140625,157.66347009850983L199.77278645833334,155.5161620892747L200.25416666666666,153.29083982624027L200.73554687499998,154.5645369637199L201.21692708333333,155.43172924959075L201.69830729166668,155.21915496068672L202.1796875,157.5001021875163L202.66106770833332,157.0537994106543L203.14244791666667,157.31536215066504L203.623828125,155.87148887177634L204.10520833333334,155.6730700457286L204.58658854166669,154.47164411331363L205.06796874999998,154.62316952168604L205.54934895833333,155.02824706327712L206.03072916666667,154.91667804568374L206.512109375,155.48731944539338L206.99348958333334,153.42506294169368L207.4748697916667,155.58095497627633L207.95624999999998,155.91605070929614L208.43763020833333,157.93670482797813L208.91901041666668,156.63351915729362L209.400390625,158.37649342772468L209.88177083333335,157.4438967261142L210.36315104166667,156.9891519089595L210.84453125,156.34486707398202L211.32591145833334,157.5230031116029L211.80729166666666,155.90141165667382L212.288671875,156.12970521151615L212.77005208333335,158.14728536494897L213.25143229166665,157.9837679502098L213.7328125,158.48123410239472L214.21419270833334,157.0198762984468L214.69557291666666,157.6284509563425L215.176953125,158.02097348049583L215.65833333333333,159.02517559334817L216.13971354166665,159.62931264216243L216.62109375,158.66686292769378L217.10247395833335,158.759306482224L217.58385416666667,158.93589217409394L218.065234375,158.09573737877972L218.54661458333334,158.79892175460594L219.02799479166666,159.15224638483622L219.509375,159.7052600781508L219.99075520833335,159.56832598824766L220.47213541666665,159.2743530415265L220.953515625,158.4351163268036L221.43489583333334,156.95391134363945L221.91627604166666,156.80964638471414L222.39765625,154.72670443173703L222.87903645833333,155.40781274933065L223.36041666666665,157.59458522088963L223.841796875,158.00420174037853L224.32317708333332,158.37933156221942L224.80455729166667,157.2848541645568L225.28593750000002,158.72432413168065L225.7673177083333,158.93832815346647L226.24869791666666,159.13981147408717L226.730078125,158.95466690693723L227.21145833333333,158.4799675652308L227.69283854166667,158.95221405133572L228.17421875000002,158.4950913381021L228.65559895833331,159.7454492744385L229.13697916666666,159.80096714391073L229.618359375,159.91498155598666L230.09973958333333,159.789448724503L230.58111979166668,159.56899520467033L231.0625,159.01174047007913L231.54388020833332,158.66284065595977L232.02526041666667,158.21163759168726L232.50664062500002,159.22213021376913L232.98802083333334,158.8673301051466L233.46940104166666,158.70614973011067L233.95078125,159.75121192243878L234.43216145833333,160.27194637089994L234.91354166666667,160.04844736287438L235.394921875,159.8890889142293L235.87630208333334,159.19576830983473L236.35768229166666,159.9215100724716L236.83906249999998,159.2750542194037L237.32044270833333,160.56683719066825L237.80182291666668,160.285514810559L238.283203125,160.50107846227186L238.76458333333332,160.38879980544385L239.24596354166667,160.69288044290965L239.72734375,161.24234094536354L240.20872395833334,161.3843652692968L240.69010416666669,160.76590785650475L241.17148437499998,160.6364043188746L241.65286458333333,159.0314002104196L242.13424479166667,159.2877246910602L242.615625,159.14143744383446L243.09700520833334,159.98890490371784L243.5783854166667,160.48661242048365L244.05976562499998,161.18546558417844L244.54114583333333,161.86884224532824L245.02252604166668,161.02138373513858L245.50390625,161.81116475140954L245.98528645833335,162.10962778903018L246.46666666666667,161.97837158649205L246.948046875,161.43738811787816L247.42942708333334,161.89678965316327L247.91080729166666,161.6990976825295L248.3921875,162.03133727367066L248.87356770833335,161.41393545149683L249.35494791666665,161.8804165207935L249.836328125,161.77876379306952L250.31770833333334,162.20507701525594L250.79908854166666,161.86133413896096L251.28046875,162.22300249448497L251.76184895833333,161.88387374092642L252.24322916666665,162.2357201134022L252.724609375,162.55336893289424L253.20598958333335,162.97663727455816L253.68736979166667,162.77633391974175L254.16875,162.95901519000924L254.65013020833334,163.032086211258L255.13151041666666,163.08611673923022L255.612890625,162.87352896833573L256.0942708333333,162.94522721880597L256.5756510416667,163.07922805275018L257.05703125,163.29354429439007L257.53841145833337,163.31338426059236L258.01979166666666,163.31151105684916L258.501171875,163.38801636769105L258.9825520833333,163.3148952897243L259.46393229166665,163.4737103613016L259.9453125,163.54764835989968L260.4266927083333,163.6326381789748L260.90807291666664,163.63158425969505L261.389453125,163.12700809698308L261.87083333333334,163.3821776971877L262.3522135416667,163.52761521288005L262.83359375000003,163.78885895102172L263.3149739583333,163.75043789303527L263.7963541666667,163.79774658108914L264.277734375,163.96556744618172L264.7591145833333,164.1115327759412" style="fill: none;" fill="none"></path></g></g></g></g><g opacity="0.2"><g><g><g><path stroke="rgb(255, 112, 67)" stroke-width="2px" d="M24.550390625000002,148.8282457760402L25.031770833333333,155.4118767602103L25.513151041666667,158.74807046822139L25.994531249999998,156.2326003585543L26.475911458333332,151.48712384360178L26.957291666666666,148.63067701884677L27.438671875,146.67007778712681L27.92005208333333,143.9773986543928L28.401432291666666,148.98447050367082L28.8828125,137.6425576891218L29.364192708333334,148.34216948236738L29.845572916666665,141.03652030399866L30.326953125,114.13913399832589L30.808333333333334,126.68113534109933L31.289713541666668,-18.65321077619279L31.77109375,137.00731613976615L32.25247395833333,146.02389074053085L32.73385416666667,141.18452927725656L33.215234375,153.39859011513846L33.696614583333336,121.14745461600167L34.17799479166666,117.49055410112653L34.659375,144.06585003989085L35.14075520833334,132.30582839420862L35.622135416666666,25.130987058367054L36.103515625,135.937611416408L36.584895833333334,126.33433983666555L37.06627604166666,137.23800352641513L37.54765625,122.25635719299316L38.02903645833333,145.11287643568858L38.510416666666664,119.08549077170235L38.991796875000006,142.78402355739047L39.47317708333333,70.0629308428083L39.95455729166667,135.86607623781478L40.4359375,79.70336984906878L40.917317708333336,0.6814132690429766L41.39869791666667,116.03767980848039L41.880078125,109.75048877171109L42.36145833333333,130.7902568272182L42.84283854166667,115.05051122392928L43.32421875,71.80326249258857L43.805598958333334,16.751197324480323L44.28697916666666,71.45179121834892L44.768359375,72.84543587820869L45.24973958333334,100.72594920567104L45.731119791666664,86.37408493586948L46.2125,111.08168694632393L46.69388020833333,142.09338173185077L47.17526041666667,89.56447432381765L47.656640625,131.34344934735978L48.13802083333333,86.7357421057565L48.61940104166667,75.67256208147322L49.100781250000004,60.906813812255855L49.58216145833333,100.94605039869036L50.063541666666666,107.49935760498046L50.544921875,93.18401208605084L51.026302083333334,-71.94998376028879L51.50768229166667,86.33718517848423L51.989062499999996,88.93349377768381L52.47044270833334,-55.919235992431624L52.951822916666664,107.090860748291L53.433203125,127.29038645880564L53.91458333333333,143.66637917927335L54.39596354166667,136.3894851412092L54.87734375,88.71219651358469L55.358723958333336,87.38227157592773L55.84010416666666,96.41419495173862L56.321484375000004,63.49385768345423L56.80286458333333,94.775186920166L57.284244791666666,103.47388875143868L57.765625,129.21661311558313L58.247005208333334,124.04620280947003L58.72838541666667,132.50549992152622L59.209765624999996,121.65491188594272L59.69114583333333,131.84847830363682L60.17252604166667,133.77314476285662L60.65390625,133.68317658560616L61.13528645833333,99.59760565076557L61.61666666666667,118.15711776188442L62.098046875,128.93630083629063L62.579427083333336,131.73272707802911L63.06080729166666,129.53296668188912L63.5421875,130.7645557676043L64.02356770833333,95.29744556971959L64.50494791666667,144.82345737729753L64.986328125,123.32100996289935L65.46770833333333,139.66197902134485L65.94908854166667,116.37442686898369L66.43046875,120.37121413094656L66.91184895833334,65.29897973196847L67.39322916666667,89.82128718239922L67.87460937499999,119.86050624847412L68.35598958333333,101.58741457802908L68.83736979166667,117.28066774095808L69.31875,92.80903897966658L69.80013020833333,93.2518505368914L70.28151041666668,106.89933504377092L70.762890625,117.70233102525984L71.24427083333333,123.03678392682757L71.72565104166667,138.29273324693952L72.20703125,117.27678533281599L72.68841145833333,114.42897867475237L73.16979166666667,145.5885413646698L73.651171875,144.73816255841936L74.13255208333332,140.21809902191163L74.61393229166667,118.7592575618199L75.0953125,76.48048880440848L75.57669270833333,137.24450234004428L76.05807291666666,92.73300165448872L76.53945312500001,119.09693543570383L77.02083333333333,131.56267760140554L77.50221354166666,144.63768535341535L77.98359375000001,136.1897798538208L78.46497395833333,150.30872374943323L78.94635416666667,100.25308636256626L79.427734375,122.3325006212507L79.90911458333333,138.305762222835L80.39049479166667,129.89431759970526L80.871875,156.01223571641106L81.35325520833334,48.760306876046315L81.83463541666667,116.37255559648787L82.31601562499999,129.8046315601894L82.79739583333334,120.3498391832624L83.27877604166666,27.51248997279577L83.76015625,137.1338995252337L84.24153645833334,159.2628850221634L84.72291666666666,143.98621003287178L85.204296875,128.6286694254194L85.68567708333335,151.3560141972133L86.16705729166667,157.14929298673357L86.6484375,120.15434908185686L87.12981770833333,149.68418173108782L87.61119791666667,143.23134208406722L88.092578125,136.69562628609793L88.57395833333332,142.29690914154054L89.05533854166667,98.89001868111745L89.53671875,150.35421544483728L90.01809895833333,139.0943034308297L90.49947916666667,131.440237058912L90.980859375,146.41531102997916L91.46223958333333,150.61912589754377L91.94361979166668,143.01281073434012L92.425,141.34244441986084L92.90638020833333,129.60792127336774L93.38776041666667,116.12504604884556L93.869140625,123.75249260493688L94.35052083333333,139.37331112452915L94.83190104166665,117.2288315636771L95.31328125,139.2851780482701L95.79466145833334,144.58700666427612L96.27604166666666,134.55425393240793L96.757421875,152.51421612330847L97.23880208333334,125.3844592503139L97.72018229166666,128.26680487224036L98.20156250000001,150.30109397343227L98.68294270833333,150.6329868180411L99.16432291666666,150.45014709745135L99.645703125,139.1553295816694L100.12708333333333,156.82873870304653L100.60846354166667,133.68790299551827L101.08984375,136.8450242451259L101.57122395833333,139.96893523080007L102.05260416666667,153.6682149205889L102.53398437499999,137.58664860044206L103.01536458333334,146.45149700301033L103.49674479166667,131.6209474836077L103.97812499999999,137.82122804096767L104.45950520833334,148.01673807416643L104.94088541666667,141.7164650099618L105.422265625,136.68104193551198L105.90364583333333,137.82115328652517L106.38502604166668,145.73591974803378L106.86640625,138.8108972821917L107.34778645833333,134.14875931058612L107.82916666666667,138.65753010341098L108.310546875,54.88542545863561L108.79192708333333,133.2984058243888L109.27330729166667,129.92539615631102L109.7546875,142.33526781627108L110.23606770833332,144.54229265621728L110.71744791666667,158.87446214471547L111.198828125,99.77055849347795L111.68020833333333,146.76055236543928L112.16158854166666,139.71718638283866L112.64296875000001,147.9274957384382L113.12434895833333,140.35092319761003L113.60572916666666,146.50498621804374L114.08710937500001,146.28462820734296L114.56848958333333,145.31121082305907L115.04986979166667,132.17823944091796L115.53125,113.17122312273298L116.01263020833333,148.50073691776822L116.49401041666667,144.906789289202L116.975390625,139.75408855165753L117.45677083333334,145.80590799195426L117.93815104166667,141.66522927965437L118.41953124999999,137.58247923169816L118.90091145833334,82.46592750549316L119.38229166666666,140.08934052331108L119.863671875,125.79609820502144L120.34505208333334,137.40434662955147L120.82643229166666,145.07134793145315L121.3078125,150.2867182118552L121.78919270833335,136.72029525211877L122.27057291666667,142.23683550698416L122.751953125,149.07465329851422L123.23333333333333,142.98139939989363L123.71471354166667,147.46665871483938L124.19609375,145.37094082832337L124.67747395833332,135.87392786570956L125.15885416666667,138.0247337477548L125.640234375,152.36788791928973L126.12161458333333,142.89834480285646L126.60299479166667,143.01421418871197L127.084375,141.551313155038L127.56575520833333,158.09351996694292L128.04713541666666,142.94191940852573L128.528515625,124.22359269005912L129.00989583333333,143.05390156337194L129.49127604166665,140.30807202202934L129.97265625,141.32968311309816L130.45403645833332,131.17081240245273L130.93541666666667,155.4897696835654L131.41679687500002,121.40036577497212L131.89817708333334,135.3950075013297L132.37955729166666,127.03038327353342L132.8609375,153.7001905305045L133.34231770833333,129.98883374077934L133.82369791666667,149.3187844276428L134.305078125,149.14816585268292L134.78645833333334,142.0873121534075L135.26783854166666,133.60646888187955L135.74921874999998,147.53407516479493L136.23059895833333,149.77543520246232L136.71197916666665,149.45834373746598L137.193359375,137.39491792406355L137.67473958333335,150.994313621521L138.15611979166667,152.3295593874795L138.6375,140.0214249065944L139.11888020833334,138.21725055149625L139.60026041666666,138.17892804827008L140.081640625,136.01444933755056L140.56302083333335,136.2947302682059L141.04440104166667,150.65334655216762L141.52578125,127.00692725862775L142.00716145833331,146.4038072858538L142.48854166666666,150.89601152965002L142.969921875,150.5231496334076L143.45130208333333,154.1684403010777L143.93268229166668,141.94020023345948L144.4140625,146.92313845498222L144.89544270833335,137.35480854851858L145.37682291666667,151.8286588055747L145.858203125,147.72938682011196L146.33958333333334,149.27068476676942L146.82096354166666,142.58024777003698L147.30234375,126.91375428608485L147.78372395833335,151.66239166259766L148.26510416666665,150.0854442868914L148.746484375,150.9563238961356L149.22786458333334,138.56287168775285L149.70924479166666,143.6831651687622L150.190625,144.77609440939767L150.67200520833333,145.4984007699149L151.15338541666665,147.39416137422833L151.634765625,141.23623041425432L152.11614583333332,145.20522108078003L152.59752604166667,159.49937250954764L153.07890625000002,143.58767239706856L153.5602864583333,139.701717036111L154.04166666666666,153.86835185459682L154.523046875,146.61061786242894L155.00442708333333,154.9124845300402L155.48580729166667,152.25866685594832L155.96718750000002,141.64519026620047L156.44856770833331,156.65303019455501L156.92994791666666,141.61700060708182L157.411328125,153.1561554295676L157.89270833333333,156.9052052634103L158.37408854166668,152.38207438332694L158.85546875,147.80049638066973L159.33684895833332,151.98524163109914L159.81822916666667,160.22054851055145L160.29960937500002,149.45792655944825L160.78098958333334,154.41922698702132L161.26236979166666,135.97463656834194L161.74375,154.3707240138735L162.22513020833333,145.21448219163076L162.70651041666667,150.67129364694867L163.187890625,151.06292011397227L163.66927083333334,160.9891531910215L164.15065104166666,145.39057351521083L164.63203124999998,150.8654080254691L165.11341145833333,152.8378787449428L165.59479166666668,139.10565887178694L166.076171875,148.14180466788156L166.55755208333332,150.02641721452986L167.03893229166667,156.08133172988892L167.5203125,154.2343725136348L168.00169270833334,138.93607962472097L168.48307291666669,141.27942883627756L168.96445312499998,156.88292904240745L169.44583333333333,155.69665320600782L169.92721354166667,152.33417607716152L170.40859375,155.07919175965446L170.88997395833334,156.48030884947096L171.3713541666667,154.33955201421466L171.85273437499998,151.97506899833678L172.33411458333333,151.5854042325701L172.81549479166668,155.20085943767003L173.296875,152.53127219336375L173.77825520833335,149.37766440255302L174.25963541666667,146.55760128838676L174.741015625,148.33548860549928L175.22239583333334,141.50812920161655L175.70377604166666,153.77912519318716L176.18515625,150.0080493245806L176.66653645833335,150.81488125664848L177.14791666666665,147.3417970929827L177.629296875,142.1249883924212L178.11067708333334,153.7510778086526L178.59205729166666,153.02998078210013L179.0734375,156.14591836248124L179.55481770833333,153.89229256766183L180.03619791666665,154.41041982855117L180.517578125,154.79246386119297L180.99895833333335,148.65179394313267L181.48033854166667,153.07354574203492L181.96171875,158.96471487113408L182.44309895833334,149.31006227220809L182.92447916666666,156.3964482307434L183.405859375,154.3073099408831L183.88723958333335,152.66808126313344L184.36861979166665,157.74380301066807L184.85,151.7091879435948L185.33138020833334,151.32923281533377L185.81276041666666,144.0934513092041L186.294140625,154.76053828852517L186.77552083333333,150.19439526966642L187.25690104166665,152.32706596510752L187.73828125,157.58231532914297L188.21966145833332,155.13980314391L188.70104166666667,159.82294168812888L189.18242187500002,157.6664188998086L189.6638020833333,154.31840856415886L190.14518229166666,153.39788597651892L190.6265625,154.86494552748545L191.10794270833333,153.7703849520002L191.58932291666667,146.06296319961547L192.07070312500002,154.47546523639136L192.55208333333331,153.73485247748238L193.03346354166666,155.29128458159312L193.51484375,154.22958220073156L193.99622395833333,158.0137816940035L194.47760416666668,154.39343791007997L194.958984375,157.728060569082L195.44036458333332,143.27149486541748L195.92174479166667,159.44994324445724L196.40312500000002,153.8031370435442L196.88450520833334,159.85335770334515L197.36588541666666,152.8317549092429L197.847265625,156.71756859847477L198.32864583333333,159.00329298632485L198.81002604166667,158.25792668887547L199.29140625,157.89414203166962L199.77278645833334,152.29520007542203L200.25416666666666,149.9528564316886L200.73554687499998,156.4750826699393L201.21692708333333,156.73251767839704L201.69830729166668,154.9002935273307L202.1796875,160.92152302776063L202.66106770833332,156.38434524536132L203.14244791666667,157.70770626068116L203.623828125,153.70567895344325L204.10520833333334,155.375441806657L204.58658854166669,152.66950521469116L205.06796874999998,154.85045763424466L205.54934895833333,155.63586337566375L206.03072916666667,154.74932451929365L206.512109375,156.34328154495785L206.99348958333334,150.33167818614413L207.4748697916667,158.8147930281503L207.95624999999998,156.4186943088259L208.43763020833333,160.96768600600106L208.91901041666668,154.6787406512669L209.400390625,160.99095483337132L209.88177083333335,156.04500167369844L210.36315104166667,156.30703468322753L210.84453125,155.37843982151577L211.32591145833334,159.29020716803416L211.80729166666666,153.46902447428022L212.288671875,156.47214554377965L212.77005208333335,161.17365559509824L213.25143229166665,157.73849182810102L213.7328125,159.22743333067214L214.21419270833334,154.82783959252492L214.69557291666666,158.54131294318609L215.176953125,158.6097572667258L215.65833333333333,160.53147876262665L216.13971354166665,160.5355182153838L216.62109375,157.22318835599083L217.10247395833335,158.89797181401934L217.58385416666667,159.2007707118988L218.065234375,156.83550518580847L218.54661458333334,159.8536983183452L219.02799479166666,159.68223333018167L219.509375,160.53478061812265L219.99075520833335,159.362924853393L220.47213541666665,158.8333936214447L220.953515625,157.17626125471932L221.43489583333334,154.7321038688932L221.91627604166666,156.5932489463261L222.39765625,151.60229150227138L222.87903645833333,156.4294752257211L223.36041666666665,160.8747439282281L223.841796875,158.6186265196119L224.32317708333332,158.94202629498074L224.80455729166667,155.64313806806294L225.28593750000002,160.8835290823664L225.7673177083333,159.25933418614522L226.24869791666666,159.44203645501818L226.730078125,158.6769500562123L227.21145833333333,157.76791855267118L227.69283854166667,159.66058378049306L228.17421875000002,157.80940726825168L228.65559895833331,161.6209861789431L229.13697916666666,159.884243948119L229.618359375,160.0860031741006L230.09973958333333,159.6011494772775L230.58111979166668,159.23831492492133L231.0625,158.1758583681924L231.54388020833332,158.13949093478067L232.02526041666667,157.5348329952785L232.50664062500002,160.737869146892L232.98802083333334,158.3351299422128L233.46940104166666,158.46437916755676L233.95078125,161.31880521093095L234.43216145833333,161.05304804359164L234.91354166666667,159.71319885083608L235.394921875,159.65005124126162L235.87630208333334,158.15578740324293L236.35768229166666,161.01012271642685L236.83906249999998,158.3053704398019L237.32044270833333,162.504511647565L237.80182291666668,159.86353124039513L238.283203125,160.82442393984113L238.76458333333332,160.22038182020188L239.24596354166667,161.14900139910833L239.72734375,162.06653169904436L240.20872395833334,161.59740175519673L240.69010416666669,159.83822173731667L241.17148437499998,160.44214901242938L241.65286458333333,156.6238940477371L242.13424479166667,159.67221141202108L242.615625,158.92200657299588L243.09700520833334,161.26010609354293L243.5783854166667,161.2331736956324L244.05976562499998,162.23374532972062L244.54114583333333,162.89390723705293L245.02252604166668,159.75019596985408L245.50390625,162.99583627581598L245.98528645833335,162.55732234546116L246.46666666666667,161.78148728268488L246.948046875,160.62591291495733L247.42942708333334,162.58589195609093L247.91080729166666,161.40255972657886L248.3921875,162.52969666038243L248.87356770833335,160.4878327182361L249.35494791666665,162.58013812473843L249.836328125,161.62628470148357L250.31770833333334,162.84454684853554L250.79908854166666,161.34571982451848L251.28046875,162.76550502777098L251.76184895833333,161.37518061058861L252.24322916666665,162.76348967211587L252.724609375,163.02984216213227L253.20598958333335,163.61153978705406L253.68736979166667,162.4758788875171L254.16875,163.23303709541048L254.65013020833334,163.1416927431311L255.13151041666666,163.16716253118855L255.612890625,162.55464731199402L256.0942708333333,163.0527745945113L256.5756510416667,163.28022930366652L257.05703125,163.61501865684986L257.53841145833337,163.3431442098958L258.01979166666666,163.3087012512343L258.501171875,163.50277433395385L258.9825520833333,163.2052136727742L259.46393229166665,163.71193296866758L259.9453125,163.6585553577968L260.4266927083333,163.76012290758746L260.90807291666664,163.63000338077546L261.389453125,162.37014385291508L261.87083333333334,163.7649320974946L262.3522135416667,163.7457714864186L262.83359375000003,164.1807245582342L263.3149739583333,163.69280630605562L263.7963541666667,163.86870961316993L264.277734375,164.2172987438206L264.7591145833333,164.33048077058046" style="fill: none;" fill="none"></path></g></g></g></g></g></g><g transform="translate(41, 177)" clip-path="url(#clip_1)"><clipPath id="clip_1"><rect width="288" height="23"></rect></clipPath><g><g><line x1="0" y1="0" x2="0" y2="5" style="visibility: inherit;" fill="rgb(0, 0, 0)" stroke="rgb(204, 204, 204)" stroke-width="1px"></line><line x1="24.069010416666664" y1="0" x2="24.069010416666664" y2="5" style="visibility: inherit;" fill="rgb(0, 0, 0)" stroke="rgb(204, 204, 204)" stroke-width="1px"></line><line x1="48.13802083333333" y1="0" x2="48.13802083333333" y2="5" style="visibility: inherit;" fill="rgb(0, 0, 0)" stroke="rgb(204, 204, 204)" stroke-width="1px"></line><line x1="72.20703125" y1="0" x2="72.20703125" y2="5" style="visibility: inherit;" fill="rgb(0, 0, 0)" stroke="rgb(204, 204, 204)" stroke-width="1px"></line><line x1="96.27604166666666" y1="0" x2="96.27604166666666" y2="5" style="visibility: inherit;" fill="rgb(0, 0, 0)" stroke="rgb(204, 204, 204)" stroke-width="1px"></line><line x1="120.34505208333334" y1="0" x2="120.34505208333334" y2="5" style="visibility: inherit;" fill="rgb(0, 0, 0)" stroke="rgb(204, 204, 204)" stroke-width="1px"></line><line x1="144.4140625" y1="0" x2="144.4140625" y2="5" style="visibility: inherit;" fill="rgb(0, 0, 0)" stroke="rgb(204, 204, 204)" stroke-width="1px"></line><line x1="168.48307291666669" y1="0" x2="168.48307291666669" y2="5" style="visibility: inherit;" fill="rgb(0, 0, 0)" stroke="rgb(204, 204, 204)" stroke-width="1px"></line><line x1="192.55208333333331" y1="0" x2="192.55208333333331" y2="5" style="visibility: inherit;" fill="rgb(0, 0, 0)" stroke="rgb(204, 204, 204)" stroke-width="1px"></line><line x1="216.62109375" y1="0" x2="216.62109375" y2="5" style="visibility: inherit;" fill="rgb(0, 0, 0)" stroke="rgb(204, 204, 204)" stroke-width="1px"></line><line x1="240.69010416666669" y1="0" x2="240.69010416666669" y2="5" style="visibility: inherit;" fill="rgb(0, 0, 0)" stroke="rgb(204, 204, 204)" stroke-width="1px"></line><line x1="264.7591145833333" y1="0" x2="264.7591145833333" y2="5" style="visibility: inherit;" fill="rgb(0, 0, 0)" stroke="rgb(204, 204, 204)" stroke-width="1px"></line><line x1="288.828125" y1="0" x2="288.828125" y2="5" style="visibility: inherit;" fill="rgb(0, 0, 0)" stroke="rgb(204, 204, 204)" stroke-width="1px"></line></g><g transform="translate(0, 8)"><text x="0" y="0" dx="0em" dy="0.95em" style="text-anchor: middle; visibility: hidden; font-family: Roboto, sans-serif; font-size: 12px; font-weight: 200;" fill="rgb(33, 33, 33)" stroke="none" stroke-width="1px">-50</text><text x="24.069010416666664" y="0" dx="0em" dy="0.95em" style="text-anchor: middle; visibility: inherit; font-family: Roboto, sans-serif; font-size: 12px; font-weight: 200;" fill="rgb(33, 33, 33)" stroke="none" stroke-width="1px">0</text><text x="48.13802083333333" y="0" dx="0em" dy="0.95em" style="text-anchor: middle; visibility: hidden; font-family: Roboto, sans-serif; font-size: 12px; font-weight: 200;" fill="rgb(33, 33, 33)" stroke="none" stroke-width="1px">50</text><text x="72.20703125" y="0" dx="0em" dy="0.95em" style="text-anchor: middle; visibility: inherit; font-family: Roboto, sans-serif; font-size: 12px; font-weight: 200;" fill="rgb(33, 33, 33)" stroke="none" stroke-width="1px">100</text><text x="96.27604166666666" y="0" dx="0em" dy="0.95em" style="text-anchor: middle; visibility: hidden; font-family: Roboto, sans-serif; font-size: 12px; font-weight: 200;" fill="rgb(33, 33, 33)" stroke="none" stroke-width="1px">150</text><text x="120.34505208333334" y="0" dx="0em" dy="0.95em" style="text-anchor: middle; visibility: inherit; font-family: Roboto, sans-serif; font-size: 12px; font-weight: 200;" fill="rgb(33, 33, 33)" stroke="none" stroke-width="1px">200</text><text x="144.4140625" y="0" dx="0em" dy="0.95em" style="text-anchor: middle; visibility: hidden; font-family: Roboto, sans-serif; font-size: 12px; font-weight: 200;" fill="rgb(33, 33, 33)" stroke="none" stroke-width="1px">250</text><text x="168.48307291666669" y="0" dx="0em" dy="0.95em" style="text-anchor: middle; visibility: inherit; font-family: Roboto, sans-serif; font-size: 12px; font-weight: 200;" fill="rgb(33, 33, 33)" stroke="none" stroke-width="1px">300</text><text x="192.55208333333331" y="0" dx="0em" dy="0.95em" style="text-anchor: middle; visibility: hidden; font-family: Roboto, sans-serif; font-size: 12px; font-weight: 200;" fill="rgb(33, 33, 33)" stroke="none" stroke-width="1px">350</text><text x="216.62109375" y="0" dx="0em" dy="0.95em" style="text-anchor: middle; visibility: inherit; font-family: Roboto, sans-serif; font-size: 12px; font-weight: 200;" fill="rgb(33, 33, 33)" stroke="none" stroke-width="1px">400</text><text x="240.69010416666669" y="0" dx="0em" dy="0.95em" style="text-anchor: middle; visibility: hidden; font-family: Roboto, sans-serif; font-size: 12px; font-weight: 200;" fill="rgb(33, 33, 33)" stroke="none" stroke-width="1px">450</text><text x="264.7591145833333" y="0" dx="0em" dy="0.95em" style="text-anchor: middle; visibility: inherit; font-family: Roboto, sans-serif; font-size: 12px; font-weight: 200;" fill="rgb(33, 33, 33)" stroke="none" stroke-width="1px">500</text><text x="288.828125" y="0" dx="0em" dy="0.95em" style="text-anchor: middle; visibility: hidden; font-family: Roboto, sans-serif; font-size: 12px; font-weight: 200;" fill="rgb(33, 33, 33)" stroke="none" stroke-width="1px">550</text></g><line x1="0" y1="0" x2="288.828125" y2="0" fill="rgb(0, 0, 0)" stroke="rgb(204, 204, 204)" stroke-width="1px"></line></g></g></g></g></svg>