<svg viewBox="0 0 330 200" xmlns="http://www.w3.org/2000/svg"><g><g><g><g><g><line x1="30.78125" y1="177" x2="25.78125" y2="177" style="visibility: inherit;" fill="rgb(0, 0, 0)" stroke="rgb(204, 204, 204)" stroke-width="1px"></line><line x1="30.78125" y1="160.9090909090909" x2="25.78125" y2="160.9090909090909" style="visibility: inherit;" fill="rgb(0, 0, 0)" stroke="rgb(204, 204, 204)" stroke-width="1px"></line><line x1="30.78125" y1="144.8181818181818" x2="25.78125" y2="144.8181818181818" style="visibility: inherit;" fill="rgb(0, 0, 0)" stroke="rgb(204, 204, 204)" stroke-width="1px"></line><line x1="30.78125" y1="128.72727272727272" x2="25.78125" y2="128.72727272727272" style="visibility: inherit;" fill="rgb(0, 0, 0)" stroke="rgb(204, 204, 204)" stroke-width="1px"></line><line x1="30.78125" y1="112.63636363636364" x2="25.78125" y2="112.63636363636364" style="visibility: inherit;" fill="rgb(0, 0, 0)" stroke="rgb(204, 204, 204)" stroke-width="1px"></line><line x1="30.78125" y1="96.54545454545453" x2="25.78125" y2="96.54545454545453" style="visibility: inherit;" fill="rgb(0, 0, 0)" stroke="rgb(204, 204, 204)" stroke-width="1px"></line><line x1="30.78125" y1="80.45454545454547" x2="25.78125" y2="80.45454545454547" style="visibility: inherit;" fill="rgb(0, 0, 0)" stroke="rgb(204, 204, 204)" stroke-width="1px"></line><line x1="30.78125" y1="64.36363636363636" x2="25.78125" y2="64.36363636363636" style="visibility: inherit;" fill="rgb(0, 0, 0)" stroke="rgb(204, 204, 204)" stroke-width="1px"></line><line x1="30.78125" y1="48.272727272727266" x2="25.78125" y2="48.272727272727266" style="visibility: inherit;" fill="rgb(0, 0, 0)" stroke="rgb(204, 204, 204)" stroke-width="1px"></line><line x1="30.78125" y1="32.18181818181817" x2="25.78125" y2="32.18181818181817" style="visibility: inherit;" fill="rgb(0, 0, 0)" stroke="rgb(204, 204, 204)" stroke-width="1px"></line><line x1="30.78125" y1="16.090909090909097" x2="25.78125" y2="16.090909090909097" style="visibility: inherit;" fill="rgb(0, 0, 0)" stroke="rgb(204, 204, 204)" stroke-width="1px"></line><line x1="30.78125" y1="0" x2="25.78125" y2="0" style="visibility: inherit;" fill="rgb(0, 0, 0)" stroke="rgb(204, 204, 204)" stroke-width="1px"></line></g><g transform="translate(20.78125, 0)"><text x="0" y="177" dx="0em" dy="0.3em" style="text-anchor: end; visibility: hidden; font-family: Roboto, sans-serif; font-size: 12px; font-weight: 200;" fill="rgb(33, 33, 33)" stroke="none" stroke-width="1px">-5</text><text x="0" y="160.9090909090909" dx="0em" dy="0.3em" style="text-anchor: end; visibility: inherit; font-family: Roboto, sans-serif; font-size: 12px; font-weight: 200;" fill="rgb(33, 33, 33)" stroke="none" stroke-width="1px">0</text><text x="0" y="144.8181818181818" dx="0em" dy="0.3em" style="text-anchor: end; visibility: hidden; font-family: Roboto, sans-serif; font-size: 12px; font-weight: 200;" fill="rgb(33, 33, 33)" stroke="none" stroke-width="1px">5</text><text x="0" y="128.72727272727272" dx="0em" dy="0.3em" style="text-anchor: end; visibility: inherit; font-family: Roboto, sans-serif; font-size: 12px; font-weight: 200;" fill="rgb(33, 33, 33)" stroke="none" stroke-width="1px">10</text><text x="0" y="112.63636363636364" dx="0em" dy="0.3em" style="text-anchor: end; visibility: hidden; font-family: Roboto, sans-serif; font-size: 12px; font-weight: 200;" fill="rgb(33, 33, 33)" stroke="none" stroke-width="1px">15</text><text x="0" y="96.54545454545453" dx="0em" dy="0.3em" style="text-anchor: end; visibility: inherit; font-family: Roboto, sans-serif; font-size: 12px; font-weight: 200;" fill="rgb(33, 33, 33)" stroke="none" stroke-width="1px">20</text><text x="0" y="80.45454545454547" dx="0em" dy="0.3em" style="text-anchor: end; visibility: hidden; font-family: Roboto, sans-serif; font-size: 12px; font-weight: 200;" fill="rgb(33, 33, 33)" stroke="none" stroke-width="1px">25</text><text x="0" y="64.36363636363636" dx="0em" dy="0.3em" style="text-anchor: end; visibility: inherit; font-family: Roboto, sans-serif; font-size: 12px; font-weight: 200;" fill="rgb(33, 33, 33)" stroke="none" stroke-width="1px">30</text><text x="0" y="48.272727272727266" dx="0em" dy="0.3em" style="text-anchor: end; visibility: hidden; font-family: Roboto, sans-serif; font-size: 12px; font-weight: 200;" fill="rgb(33, 33, 33)" stroke="none" stroke-width="1px">35</text><text x="0" y="32.18181818181817" dx="0em" dy="0.3em" style="text-anchor: end; visibility: inherit; font-family: Roboto, sans-serif; font-size: 12px; font-weight: 200;" fill="rgb(33, 33, 33)" stroke="none" stroke-width="1px">40</text><text x="0" y="16.090909090909097" dx="0em" dy="0.3em" style="text-anchor: end; visibility: hidden; font-family: Roboto, sans-serif; font-size: 12px; font-weight: 200;" fill="rgb(33, 33, 33)" stroke="none" stroke-width="1px">45</text><text x="0" y="0" dx="0em" dy="0.3em" style="text-anchor: end; visibility: hidden; font-family: Roboto, sans-serif; font-size: 12px; font-weight: 200;" fill="rgb(33, 33, 33)" stroke="none" stroke-width="1px">50</text></g><line x1="30.78125" y1="0" x2="30.78125" y2="177" fill="rgb(0, 0, 0)" stroke="rgb(204, 204, 204)" stroke-width="1px"></line></g></g><g transform="translate(30, 0)" clip-path="url(#clip_0)"><clipPath id="clip_0"><rect width="299" height="177"></rect></clipPath><g><g><g><line x1="0" y1="0" x2="0" y2="177" fill="rgb(0, 0, 0)" stroke="rgb(66, 66, 66)" stroke-width="1px" opacity="0.25"></line><line x1="24.934895833333332" y1="0" x2="24.934895833333332" y2="177" fill="rgb(0, 0, 0)" stroke="rgb(66, 66, 66)" stroke-width="1px" opacity="0.25"></line><line x1="49.869791666666664" y1="0" x2="49.869791666666664" y2="177" fill="rgb(0, 0, 0)" stroke="rgb(66, 66, 66)" stroke-width="1px" opacity="0.25"></line><line x1="74.8046875" y1="0" x2="74.8046875" y2="177" fill="rgb(0, 0, 0)" stroke="rgb(66, 66, 66)" stroke-width="1px" opacity="0.25"></line><line x1="99.73958333333333" y1="0" x2="99.73958333333333" y2="177" fill="rgb(0, 0, 0)" stroke="rgb(66, 66, 66)" stroke-width="1px" opacity="0.25"></line><line x1="124.67447916666667" y1="0" x2="124.67447916666667" y2="177" fill="rgb(0, 0, 0)" stroke="rgb(66, 66, 66)" stroke-width="1px" opacity="0.25"></line><line x1="149.609375" y1="0" x2="149.609375" y2="177" fill="rgb(0, 0, 0)" stroke="rgb(66, 66, 66)" stroke-width="1px" opacity="0.25"></line><line x1="174.54427083333334" y1="0" x2="174.54427083333334" y2="177" fill="rgb(0, 0, 0)" stroke="rgb(66, 66, 66)" stroke-width="1px" opacity="0.25"></line><line x1="199.47916666666666" y1="0" x2="199.47916666666666" y2="177" fill="rgb(0, 0, 0)" stroke="rgb(66, 66, 66)" stroke-width="1px" opacity="0.25"></line><line x1="224.4140625" y1="0" x2="224.4140625" y2="177" fill="rgb(0, 0, 0)" stroke="rgb(66, 66, 66)" stroke-width="1px" opacity="0.25"></line><line x1="249.34895833333334" y1="0" x2="249.34895833333334" y2="177" fill="rgb(0, 0, 0)" stroke="rgb(66, 66, 66)" stroke-width="1px" opacity="0.25"></line><line x1="274.28385416666663" y1="0" x2="274.28385416666663" y2="177" fill="rgb(0, 0, 0)" stroke="rgb(66, 66, 66)" stroke-width="1px" opacity="0.25"></line><line x1="299.21875" y1="0" x2="299.21875" y2="177" fill="rgb(0, 0, 0)" stroke="rgb(66, 66, 66)" stroke-width="1px" opacity="0.25"></line></g><g><line x1="0" y1="177" x2="299.21875" y2="177" fill="rgb(0, 0, 0)" stroke="rgb(66, 66, 66)" stroke-width="1px" opacity="0.25"></line><line x1="0" y1="160.9090909090909" x2="299.21875" y2="160.9090909090909" fill="rgb(0, 0, 0)" stroke="rgb(66, 66, 66)" stroke-width="1px" opacity="0.25"></line><line x1="0" y1="144.8181818181818" x2="299.21875" y2="144.8181818181818" fill="rgb(0, 0, 0)" stroke="rgb(66, 66, 66)" stroke-width="1px" opacity="0.25"></line><line x1="0" y1="128.72727272727272" x2="299.21875" y2="128.72727272727272" fill="rgb(0, 0, 0)" stroke="rgb(66, 66, 66)" stroke-width="1px" opacity="0.25"></line><line x1="0" y1="112.63636363636364" x2="299.21875" y2="112.63636363636364" fill="rgb(0, 0, 0)" stroke="rgb(66, 66, 66)" stroke-width="1px" opacity="0.25"></line><line x1="0" y1="96.54545454545453" x2="299.21875" y2="96.54545454545453" fill="rgb(0, 0, 0)" stroke="rgb(66, 66, 66)" stroke-width="1px" opacity="0.25"></line><line x1="0" y1="80.45454545454547" x2="299.21875" y2="80.45454545454547" fill="rgb(0, 0, 0)" stroke="rgb(66, 66, 66)" stroke-width="1px" opacity="0.25"></line><line x1="0" y1="64.36363636363636" x2="299.21875" y2="64.36363636363636" fill="rgb(0, 0, 0)" stroke="rgb(66, 66, 66)" stroke-width="1px" opacity="0.25"></line><line x1="0" y1="48.272727272727266" x2="299.21875" y2="48.272727272727266" fill="rgb(0, 0, 0)" stroke="rgb(66, 66, 66)" stroke-width="1px" opacity="0.25"></line><line x1="0" y1="32.18181818181817" x2="299.21875" y2="32.18181818181817" fill="rgb(0, 0, 0)" stroke="rgb(66, 66, 66)" stroke-width="1px" opacity="0.25"></line><line x1="0" y1="16.090909090909097" x2="299.21875" y2="16.090909090909097" fill="rgb(0, 0, 0)" stroke="rgb(66, 66, 66)" stroke-width="1px" opacity="0.25"></line><line x1="0" y1="0" x2="299.21875" y2="0" fill="rgb(0, 0, 0)" stroke="rgb(66, 66, 66)" stroke-width="1px" opacity="0.25"></line></g></g></g><g><g><line x1="0" y1="160.9090909090909" x2="299.21875" y2="160.9090909090909" fill="rgb(0, 0, 0)" stroke="rgb(153, 153, 153)" stroke-width="1.5px"></line></g></g><g><g><line x1="24.934895833333332" y1="0" x2="24.934895833333332" y2="177" fill="rgb(0, 0, 0)" stroke="rgb(153, 153, 153)" stroke-width="1.5px"></line></g></g><g><g><g><g><g><path stroke="rgb(255, 112, 67)" stroke-width="2px" d="M25.433593750000004,128.7952102661133L25.932291666666668,139.25996327616951L26.430989583333332,145.81136984214712L26.9296875,144.76817270485475L27.428385416666664,142.62144707372366L27.927083333333336,142.84504041048876L28.42578125,145.3952090380117L28.924479166666664,135.12542758258493L29.423177083333332,133.89230453868203L29.921875,121.62275545238138L30.420572916666668,157.45904057774655L30.919270833333332,141.36904179217728L31.41796875,119.52555880958097L31.916666666666668,118.09316952083279L32.415364583333336,160.15003648817878L32.9140625,139.81633975498968L33.412760416666664,143.35721802681692L33.91145833333333,132.07478351795157L34.41015625,135.0458285826627L34.908854166666664,105.12324907162397L35.407552083333336,116.38405152601754L35.90625,115.39550156392643L36.40494791666667,108.66977410998551L36.903645833333336,52.81557735766753L37.40234375,70.93252161766198L37.90104166666667,75.12426589564961L38.39973958333333,86.18818417019682L38.8984375,96.53205149362044L39.397135416666664,105.07806803770586L39.895833333333336,93.87585979996486L40.39453125,102.52783123104979L40.893229166666664,64.57486707705756L41.391927083333336,81.94007722835607L41.89062500000001,43.18634222929237L42.389322916666664,118.43200987817204L42.888020833333336,98.75580085001978L43.38671875,89.1400975076103L43.885416666666664,86.31323524078469L44.384114583333336,82.15839034009257L44.8828125,47.29644287660333L45.38151041666667,56.885183793400515L45.88020833333333,96.61309750101071L46.37890625,39.7239456867727L46.87760416666667,29.48447741228721L47.37630208333333,12.198293673247735L47.875,23.59756182588651L48.373697916666664,58.54526906649965L48.872395833333336,45.93422415046534L49.37109375,68.52201878235371L49.869791666666664,61.3635083995923L50.368489583333336,40.206648768567945L50.86718750000001,98.26550950833563L51.365885416666664,84.44488872943569L51.864583333333336,70.13070174239608L52.36328125,57.13168060020577L52.861979166666664,62.12913937763688L53.360677083333336,57.179823686728376L53.859375,47.2568038467125L54.35807291666667,166.49968311592073L54.85677083333333,119.8182319997881L55.35546875,99.87435988746104L55.85416666666667,112.86728172615582L56.35286458333333,117.06407133117027L56.8515625,76.97440926265789L57.35026041666667,62.49162401218453L57.84895833333333,51.179229944863955L58.34765625,26.976281641456705L58.846354166666664,29.433368083773168L59.345052083333336,46.581028679409876L59.84375,60.53969338229525L60.342447916666664,65.72638732953695L60.841145833333336,77.31142524329213L61.33984374999999,87.22127144180712L61.838541666666664,88.08075185378722L62.337239583333336,89.91755146794083L62.8359375,87.90127856142858L63.334635416666664,68.52067600027156L63.833333333333336,80.98580894821869L64.33203125,88.20644616771494L64.83072916666667,94.24777310445975L65.32942708333333,89.7039407958257L65.828125,94.69801716526175L66.32682291666667,65.66035923270641L66.82552083333333,87.40223211483026L67.32421875,95.60478796330067L67.82291666666666,117.31892749669157L68.32161458333333,88.35977238602099L68.8203125,80.4694695273601L69.31901041666667,73.47024977616394L69.81770833333333,72.60843740231944L70.31640625,63.94783654472973L70.81510416666667,45.51107580601043L71.31380208333334,58.72831454544041L71.8125,40.58581649160194L72.31119791666667,44.72301882562524L72.80989583333334,55.891551094181075L73.30859375,59.11720743429628L73.80729166666667,69.010854134761L74.30598958333333,82.58773677673285L74.8046875,85.10474407520609L75.30338541666666,67.35219109400504L75.80208333333334,86.10306487418755L76.30078125,99.37581370034707L76.79947916666666,103.49694329833324L77.29817708333334,87.24844152498716L77.796875,61.50497289617126L78.29557291666666,82.75464620357856L78.79427083333333,67.67032389934884L79.29296875,60.05155036322436L79.79166666666667,75.83401931816545L80.29036458333333,93.88527385952055L80.7890625,108.03725641498879L81.28776041666667,115.87041920099966L81.78645833333333,100.23814359102326L82.28515625,105.93750637722583L82.78385416666667,113.73268089071092L83.28255208333333,102.16298723260216L83.78125000000001,117.49460547557537L84.27994791666667,126.46322102335458L84.77864583333333,127.55306734218435L85.27734374999999,134.92792020739023L85.77604166666667,118.07319269283792L86.27473958333333,116.29890584314194L86.7734375,112.75824860454017L87.27213541666667,150.59563288131875L87.77083333333333,135.70945698404026L88.26953125,111.64940335524126L88.76822916666667,118.88817510945825L89.26692708333333,137.92626366906572L89.765625,108.0603332302924L90.26432291666667,117.28725403613132L90.76302083333334,115.45136963081853L91.26171875,109.25470280987429L91.76041666666666,111.73554277190648L92.25911458333334,92.04451042211049L92.7578125,112.26703562809985L93.25651041666666,118.53182157994053L93.75520833333334,105.25229723818093L94.25390625,113.78703067001261L94.75260416666666,118.86869677059333L95.25130208333334,118.1697172078638L95.75,115.0090190870363L96.24869791666666,103.68288209986025L96.74739583333333,95.47232638904437L97.24609375,89.51251985408979L97.74479166666667,98.44957906222307L98.24348958333333,120.9028387674286L98.7421875,118.23027757630854L99.24088541666667,120.69787148241954L99.73958333333333,113.48340987620156L100.23828125,124.53029679408473L100.73697916666667,122.52771226723564L101.23567708333333,107.22375254899549L101.73437500000001,118.2051854574535L102.23307291666667,145.87317539606522L102.73177083333333,140.20503237664394L103.23046874999999,124.19067699379087L103.72916666666667,151.22117621580577L104.22786458333333,126.72651468389576L104.7265625,113.92301690914782L105.22526041666667,112.30866733015887L105.72395833333333,122.13538897592072L106.22265625,121.02975883166393L106.72135416666667,121.41623546756637L107.22005208333333,105.79603478196029L107.71875,121.00553773929335L108.21744791666667,123.09939733396132L108.71614583333334,115.21666059220472L109.21484375,108.52862753097091L109.71354166666666,113.90046900459996L110.21223958333334,114.59303192433312L110.7109375,110.41873214066166L111.20963541666666,111.77942502824911L111.70833333333334,110.58049220844448L112.20703125,68.85063596782237L112.70572916666666,76.4266791326288L113.20442708333334,87.66016032548015L113.703125,118.87681444556274L114.20182291666666,117.26700048402134L114.70052083333334,129.1414739068568L115.19921875,107.10654008918686L115.69791666666666,112.42463295604452L116.19661458333333,111.04383370096159L116.6953125,118.55385592902864L117.19401041666667,113.37539397400988L117.69270833333333,115.24830903982362L118.19140625,117.56248114311026L118.69010416666667,116.80659626865202L119.18880208333333,117.96367115951773L119.6875,134.5750129949771L120.18619791666667,136.73150980975927L120.68489583333333,129.25206290156933L121.18359375000001,126.9169884317486L121.68229166666667,122.53839389523078L122.18098958333333,126.52655619298454L122.67968749999999,117.01134359460819L123.17838541666667,88.72909835980113L123.67708333333333,104.53493886040748L124.17578125,90.40292498616637L124.67447916666667,97.98290601764532L125.17317708333333,106.99109472780796L125.671875,118.23881430183927L126.17057291666667,121.87261915028414L126.66927083333333,116.08088733045811L127.16796875,122.45356268003536L127.66666666666667,127.90532832831929L128.16536458333334,127.92309112873873L128.6640625,123.09467847152146L129.16276041666666,129.687958753889L129.66145833333334,119.71301294265213L130.16015625,124.18359708194204L130.65885416666666,118.88597405338663L131.15755208333334,121.7796117896536L131.65625,115.63084876657447L132.15494791666666,128.28907658172204L132.65364583333334,125.83574436655807L133.15234375,128.1867329996623L133.65104166666666,128.76158028136476L134.14973958333331,130.3729688569625L134.6484375,122.93952051927782L135.14713541666666,120.56531319435697L135.64583333333331,135.60608909584116L136.14453125,111.3804518028971L136.64322916666666,122.90782505693024L137.14192708333331,123.21305178742074L137.640625,127.44074742931946L138.13932291666666,131.04672917492124L138.63802083333334,131.36200713441386L139.13671875,130.823854310611L139.63541666666666,123.24078941520185L140.13411458333334,114.1796621922674L140.6328125,116.93170218513362L141.13151041666666,139.56766475097996L141.63020833333334,135.25394672600967L142.12890625,141.27622565168357L142.62760416666669,135.55406671758152L143.12630208333334,133.91246373715848L143.625,129.19003745333245L144.12369791666669,127.26692874419406L144.62239583333334,124.1835342939685L145.12109375,127.12609323401827L145.61979166666669,116.15956051194415L146.11848958333334,124.42668655519118L146.6171875,117.09762366351686L147.11588541666666,117.56781114768398L147.61458333333334,125.80845582243829L148.11328125,126.04107292333913L148.61197916666666,131.55390034926828L149.11067708333334,121.59602936860747L149.609375,124.33373019496155L150.10807291666669,120.37362264123561L150.60677083333331,124.92883824510848L151.10546875,124.34428810858631L151.60416666666669,128.3155726237855L152.10286458333331,129.99316788457404L152.6015625,114.48438434003064L153.10026041666669,123.31455283413202L153.59895833333331,126.45968705326241L154.09765625,132.559570194271L154.59635416666669,122.3265017268254L155.09505208333331,131.21360023611854L155.59375,127.94935880278173L156.09244791666666,145.0172624700291L156.59114583333331,139.0588847314404L157.08984375,131.62420055100026L157.58854166666666,131.17488932973455L158.08723958333334,138.3211993421367L158.5859375,133.85704423740648L159.08463541666666,142.26358019054294L159.58333333333334,142.27623656952593L160.08203125,135.64469395421114L160.58072916666666,138.99794690661204L161.07942708333334,140.78092498767285L161.578125,131.1133360497881L162.07682291666666,136.394162546288L162.57552083333334,127.94900748760055L163.07421875,133.0945052837979L163.57291666666666,136.9746524722585L164.07161458333334,134.6328034920221L164.5703125,137.61476742652317L165.06901041666666,135.08243943263176L165.56770833333334,155.088882403753L166.06640625000003,149.5699234932661L166.56510416666666,143.98697661654515L167.06380208333334,137.9409659603834L167.56250000000003,137.35906179696647L168.06119791666666,135.80994765945653L168.55989583333334,134.85790289687685L169.05859374999997,133.04323002215045L169.55729166666666,147.89814823154643L170.05598958333334,146.4811067588353L170.55468749999997,141.79993819886698L171.05338541666666,140.31122514022306L171.55208333333334,136.555549649619L172.05078125,130.5420544740532L172.54947916666666,133.57613467306828L173.04817708333334,136.18672865609705L173.546875,135.96943124564353L174.04557291666666,130.76145037474984L174.54427083333334,145.8881841695798L175.04296875,144.4697720115912L175.54166666666666,143.4064610338257L176.04036458333334,140.48615984838938L176.5390625,140.70967433796096L177.03776041666666,143.95648918141205L177.53645833333334,142.05214520534716L178.03515625,141.48897212215405L178.53385416666666,137.78092194045107L179.03255208333334,138.67931025336532L179.53125,137.82957116788833L180.02994791666669,137.05984391921666L180.52864583333334,133.26635385713413L181.02734375,140.23081197130452L181.52604166666669,148.95504589409475L182.02473958333331,144.6339746807051L182.5234375,139.59923584934992L183.02213541666669,140.77220665479038L183.52083333333331,136.56860499041065L184.01953125,131.16206947728972L184.51822916666669,135.589611719638L185.01692708333331,136.43777396204734L185.515625,139.4966762596636L186.01432291666669,142.13739481815944L186.51302083333331,142.87122746540297L187.01171875,146.76022110080993L187.51041666666669,138.6671806479904L188.00911458333331,137.7889347717954L188.5078125,141.9143244937535L189.00651041666669,137.55883348242932L189.50520833333331,141.9997179458474L190.00390625,141.6259846579448L190.50260416666669,140.66307924663786L191.00130208333331,145.06580548331598L191.5,142.18003895266492L191.99869791666669,139.47221446157587L192.49739583333331,138.70509554068175L192.99609375,141.68656642280882L193.49479166666666,141.37793943614935L193.99348958333331,139.03092176493888L194.4921875,140.9455946225176L194.99088541666666,141.61739186178957L195.48958333333334,146.65724406038873L195.98828125,155.94470090657293L196.48697916666666,153.0736066753691L196.98567708333334,149.34283728819153L197.484375,145.79021763586547L197.98307291666666,148.43071717306645L198.48177083333334,141.01252879377464L198.98046875,139.2618481228779L199.47916666666666,143.8432852171244L199.97786458333334,142.27560845313397L200.4765625,142.57455495502577L200.97526041666666,144.58797000720625L201.47395833333334,142.71318134417305L201.97265625,143.3091989059079L202.47135416666666,140.80636713573668L202.97005208333334,144.3813589763439L203.46875000000003,145.91018736595325L203.96744791666666,149.20305321443L204.46614583333334,145.12259873829493L204.96484375000003,144.39264490859307L205.46354166666666,146.09315519008993L205.96223958333334,151.9199556834121L206.46093749999997,149.49122519185767L206.95963541666666,145.3268417053856L207.45833333333334,142.0759150859866L207.95703124999997,142.79224634218588L208.45572916666666,144.09506272604906L208.95442708333334,143.37372535480114L209.453125,146.92887794567432L209.95182291666666,150.26899423226774L210.45052083333334,148.67946313981344L210.94921875,146.00059995586514L211.44791666666666,143.619248329121L211.94661458333334,140.51463654408127L212.4453125,141.49319866964058L212.94401041666666,141.6951323095003L213.44270833333334,141.028519655864L213.94140625,144.1230042037967L214.44010416666666,142.00497448050777L214.93880208333334,149.66589560922807L215.4375,146.7328178525974L215.93619791666666,149.41708124015062L216.43489583333334,145.15604172255053L216.93359375,150.19279421153934L217.43229166666669,146.44904730786843L217.93098958333334,146.05745162246964L218.4296875,148.09121946078093L218.92838541666669,148.3081115242552L219.42708333333331,147.99604477169203L219.92578125,147.69062912686465L220.42447916666669,150.28554200262468L220.92317708333331,148.12460300447566L221.421875,148.0602091452979L221.92057291666669,149.3955573781866L222.41927083333331,150.0536067376891L222.91796875,150.35029275847538L223.41666666666669,152.85093248408694L223.91536458333331,153.58593469540543L224.4140625,150.88238952207723L224.91276041666669,152.0888456533875L225.41145833333331,153.0475918276515L225.91015625,154.6480475615234L226.40885416666669,155.13048801865622L226.90755208333331,153.28990297930397L227.40625,153.0587009432026L227.90494791666669,151.98916392945804L228.40364583333331,151.52969546342936L228.90234375,149.71831940319078L229.40104166666669,147.42497390149143L229.89973958333331,147.75335420978024L230.3984375,148.87743915640849L230.89713541666666,147.46045281754783L231.39583333333331,149.65182794274816L231.89453125,150.08663845959643L232.39322916666666,150.9536671987104L232.89192708333334,147.49181472962664L233.390625,149.5647391340739L233.88932291666666,149.90672238738796L234.38802083333334,149.46753079890448L234.88671875,149.7220570733285L235.38541666666666,150.64097329720312L235.88411458333334,150.40717795512296L236.3828125,151.85873842132816L236.88151041666666,153.84080287782714L237.38020833333334,153.54227620398567L237.87890625,152.79233295310152L238.37760416666666,152.19597842502307L238.87630208333334,151.66256147226682L239.375,149.63073514635502L239.87369791666666,150.45412915863045L240.37239583333334,150.55800533830683L240.87109375000003,151.6988321093728L241.36979166666666,154.46258116238826L241.86848958333334,151.66875716578346L242.36718750000003,152.89028023559678L242.86588541666666,153.2098692237611L243.36458333333334,152.84696552326477L243.86328124999997,153.79170039397596L244.36197916666666,154.01807990275907L244.86067708333334,154.51390397973168L245.35937499999997,155.45203213816362L245.85807291666666,157.19373835161613L246.35677083333334,154.65425395325536L246.85546875,154.66745263409229L247.35416666666666,153.63287758284685L247.85286458333334,155.13265814975858L248.3515625,156.06659684644808L248.85026041666666,156.35029168060333L249.34895833333334,155.16963587026163L249.84765625,154.44451611043323L250.34635416666666,153.1445569701706L250.84505208333334,154.75935042026293L251.34375,155.51641795448236L251.84244791666666,154.7716869009243L252.34114583333334,155.24662127245432L252.83984375,155.67816106386545L253.33854166666666,156.2807030724304L253.83723958333334,155.60183727023272L254.3359375,156.50820025229993L254.83463541666669,157.32785132401096L255.33333333333334,156.4357841324817L255.83203125,156.92894554957542L256.3307291666667,157.65969060305721L256.8294270833333,156.63888596647632L257.328125,156.5140822923672L257.8268229166667,155.39588146860714L258.3255208333333,157.2009147457689L258.82421875,156.6590167748739L259.3229166666667,156.94421710505216L259.8216145833333,156.23209482175406L260.3203125,156.552301184462L260.8190104166667,155.7971791042735L261.3177083333333,157.2146596899485L261.81640625,157.49932825727575L262.3151041666667,158.30982174103718L262.8138020833333,157.67471470024253L263.3125,157.98863053616975L263.8111979166667,158.46558076515416L264.3098958333333,158.55270965821137L264.80859375,158.37177910024064L265.3072916666667,158.6492847456474L265.8059895833333,158.66050669233002L266.3046875,158.95104485461928L266.8033854166667,159.07731017611675L267.3020833333333,158.9243989821807L267.80078125,158.97142165575184L268.29947916666663,159.025928984128L268.7981770833333,159.46404924774538L269.296875,159.80105038828637L269.79557291666663,160.08089708708462L270.2942708333333,159.7119519233975L270.79296875,159.2458592228619L271.29166666666663,159.4004450452209L271.7903645833333,159.78171071751922L272.2890625,160.08176327650335L272.78776041666663,159.95908580842368L273.2864583333333,160.0013540185854L273.78515625,160.25536156519445L274.28385416666663,160.48971763879933" style="fill: none;" fill="none"></path></g></g></g></g><g opacity="0.2"><g><g><g><path stroke="rgb(255, 112, 67)" stroke-width="2px" d="M25.433593750000004,128.7952102661133L25.932291666666668,145.53881508220326L26.430989583333332,152.1007201454856L26.9296875,143.54137287139892L27.428385416666664,139.81868208971892L27.927083333333336,143.15435048883612L28.42578125,149.04199097806756L28.924479166666664,120.15198763067072L29.423177083333332,132.0736875707453L29.921875,103.40390500155361L30.420572916666668,210.88843579725787L30.919270833333332,117.32160467668014L31.41796875,86.83165709755639L31.916666666666668,115.9473917874423L32.415364583333336,223.18590067083184L32.9140625,109.33013555353338L33.412760416666664,148.6670370535417L33.91145833333333,115.15399636355315L34.41015625,139.5019435709173L34.908854166666664,60.24211484735663L35.407552083333336,133.27463763843883L35.90625,113.91270914944737L36.40494791666667,98.58131571683016L36.903645833333336,-30.96505612460049L37.40234375,98.1078092401678L37.90104166666667,81.41186443675649L38.39973958333333,102.78403327248314L38.8984375,112.047836598483L39.397135416666664,117.89708498174494L39.895833333333336,77.07255363464355L40.39453125,115.5057855085893L40.893229166666664,7.645428397438747L41.391927083333336,107.98789038224653L41.89062500000001,-14.9442574934526L42.389322916666664,231.30050811767578L42.888020833333336,69.24148781516334L43.38671875,74.71654264276678L43.885416666666664,82.072941866788L44.384114583333336,75.92612301219593L44.8828125,-4.996478202126239L45.38151041666667,71.26829514936968L45.88020833333333,156.2049680146304L46.37890625,-45.60978199351919L46.87760416666667,14.125275004993787L47.37630208333333,-13.730981930819416L47.875,40.69646405306729L48.373697916666664,110.96682992414995L48.872395833333336,27.017656777121797L49.37109375,102.4037107294256L49.869791666666664,50.62574282559481L50.368489583333336,8.47135932228782L50.86718750000001,185.35380061756481L51.365885416666664,63.713957561146124L51.864583333333336,48.659421261874115L52.36328125,37.6331488869407L52.861979166666664,69.62532754377887L53.360677083333336,49.755850150368424L53.859375,32.37227408669212L54.35807291666667,345.36400201970883L54.85677083333333,49.79605532559482L55.35546875,69.95855171897193L55.85416666666667,132.35666448419744L56.35286458333333,123.35925573869186L56.8515625,16.839916159889913L57.35026041666667,40.76744613647462L57.84895833333333,34.21063884388316L58.34765625,-9.328140813654123L58.846354166666664,33.11899774724786L59.345052083333336,72.30251957286487L59.84375,81.47769043662332L60.342447916666664,73.50642825039951L60.841145833333336,94.68898211392488L61.33984374999999,102.08604073957963L61.838541666666664,89.36997247175736L62.337239583333336,92.67275088917125L62.8359375,84.87686920166016L63.334635416666664,39.44977215853604L63.833333333333336,99.68350837013939L64.33203125,99.03740199695933L64.83072916666667,103.30976350957697L65.32942708333333,82.88819233287465L65.828125,102.18913171941583L66.32682291666667,22.103872333873394L66.82552083333333,120.01504143801601L67.32421875,107.90862173600631L67.82291666666666,149.8901367967779L68.32161458333333,44.921039720015095L68.8203125,68.6340152393688L69.31901041666667,62.97142014936967L69.81770833333333,71.31571884155274L70.31640625,50.95693525834517L70.81510416666667,17.855934697931467L71.31380208333334,78.5541726545854L71.8125,13.372069410844277L72.31119791666667,50.92882232666016L72.80989583333334,72.64434949701483L73.30859375,63.9556919444691L73.80729166666667,83.85132418545808L74.30598958333333,102.95306073969061L74.8046875,88.88025502291593L75.30338541666666,40.72336162220348L75.80208333333334,114.22937554446133L76.30078125,119.2849369395863L76.79947916666666,109.6786376953125L77.29817708333334,62.87568886496803L77.796875,22.88976995294744L78.29557291666666,114.62915616468949L78.79427083333333,45.04384044300425L79.29296875,48.62339005903764L79.79166666666667,99.50772275057707L80.29036458333333,120.96215567155318L80.7890625,129.26523024819113L81.28776041666667,127.62016338001598L81.78645833333333,76.78973017605867L82.28515625,114.48655055652964L82.78385416666667,125.4254426609386L83.28255208333333,84.80844674543901L83.78125000000001,140.4920328400352L84.27994791666667,139.91614434502344L84.77864583333333,129.18783682042903L85.27734374999999,145.9901995051991L85.77604166666667,92.7911014210094L86.27473958333333,113.63747556859796L86.7734375,107.4472627466375L87.27213541666667,207.35170929648658L87.77083333333333,113.38019313812255L88.26953125,75.55932291204279L88.76822916666667,129.74633274078369L89.26692708333333,166.48339650847694L89.765625,63.261437572132465L90.26432291666667,131.1276352448897L90.76302083333334,112.69754302284935L91.26171875,99.95970257845791L91.76041666666666,115.45680271495472L92.25911458333334,62.50796189741655L92.7578125,142.60082343708387L93.25651041666666,127.92900050770153L93.75520833333334,85.33301072554154L94.25390625,126.58913081776012L94.75260416666666,126.4911959214644L95.25130208333334,117.12124786376954L95.75,110.26797190579502L96.24869791666666,86.69367661909624L96.74739583333333,83.15649282282048L97.24609375,80.57281005165794L97.74479166666667,111.85516787442295L98.24348958333333,154.58272832523693L98.7421875,114.22143578962846L99.24088541666667,124.39926234158604L99.73958333333333,102.66171746687455L100.23828125,141.10062717090955L100.73697916666667,119.523835476962L101.23567708333333,84.2678129716353L101.73437500000001,134.67733482014052L102.23307291666667,187.3751603039828L102.73177083333333,131.702817847512L103.23046874999999,100.16914391951127L103.72916666666667,191.76692504882814L104.22786458333333,89.9845223860307L104.7265625,94.71777024702592L105.22526041666667,109.88714296167547L105.72395833333333,136.87547144456343L106.22265625,119.37131361527875L106.72135416666667,121.99595042142L107.22005208333333,82.36573375355114L107.71875,143.81979217529297L108.21744791666667,126.24018672596326L108.71614583333334,103.39255547956986L109.21484375,98.4965779391202L109.71354166666666,121.9582312150435L110.21223958333334,115.6318763039329L110.7109375,104.15728246515448L111.20963541666666,113.82046435963022L111.70833333333334,108.78209297873757L112.20703125,6.255851606889204L112.70572916666666,87.79074387983842L113.20442708333334,104.51038211475719L113.703125,165.70179562568666L114.20182291666666,114.85227954170921L114.70052083333334,146.95318404110995L115.19921875,74.05413936268201L115.69791666666666,120.40177225633101L116.19661458333333,108.97263481833717L116.6953125,129.81888927112925L117.19401041666667,105.60770104148172L117.69270833333333,118.05768163854425L118.19140625,121.03373929804022L118.69010416666667,115.67276895696466L119.18880208333333,119.69928349581633L119.6875,159.49202574816618L120.18619791666667,139.9662550319325L120.68489583333333,118.03289253928446L121.18359375000001,123.41437672701748L121.68229166666667,115.9705020904541L122.18098958333333,132.50879963961512L122.67968749999999,102.73852469704367L123.17838541666667,46.30573050759056L123.67708333333333,128.24369961131703L124.17578125,69.2049041748047L124.67447916666667,109.35287756486373L125.17317708333333,120.50337779305198L125.671875,135.1103936628862L126.17057291666667,127.32332642295145L126.66927083333333,107.39328960071911L127.16796875,132.0125757044012L127.66666666666667,136.08297680074517L128.16536458333334,127.94973532936788L128.6640625,115.85205948569558L129.16276041666666,139.5778791774403L129.66145833333334,104.75059422579677L130.16015625,130.8894732908769L130.65885416666666,110.93953951055353L131.15755208333334,126.12006839405406L131.65625,106.40770423195579L132.15494791666666,147.27641830444335L132.65364583333334,122.15574604381214L133.15234375,131.71321594931862L133.65104166666666,129.62385120391846L134.14973958333331,132.79005172035912L134.6484375,111.78934801275079L135.14713541666666,117.00400220697577L135.64583333333331,158.16725294806741L136.14453125,75.041995863481L136.64322916666666,140.19888493797998L137.14192708333331,123.67089188315651L137.640625,133.78229089216754L138.13932291666666,136.45570179332384L138.63802083333334,131.8349240736528L139.13671875,130.01662507490678L139.63541666666666,111.86619207208807L140.13411458333334,100.58797135786577L140.6328125,121.05976217443293L141.13151041666666,173.52160859974947L141.63020833333334,128.78336968855425L142.12890625,150.30964404019443L142.62760416666669,126.97082831642844L143.12630208333334,131.45005926652388L143.625,122.10639802759344L144.12369791666669,124.38226568048651L144.62239583333334,119.55844261863014L145.12109375,131.53993164409292L145.61979166666669,99.709761428833L146.11848958333334,136.8273756200617L146.6171875,106.10402932600542L147.11588541666666,118.27309237393465L147.61458333333334,138.16942283456976L148.11328125,126.38999857469038L148.61197916666666,139.82314148816195L149.11067708333334,106.6592228976163L149.609375,128.44028143449262L150.10807291666669,114.43346131064675L150.60677083333331,131.76166165091774L151.10546875,123.46746290380304L151.60416666666669,134.27249939658427L152.10286458333331,132.50956077575682L152.6015625,91.22120902321556L153.10026041666669,136.5598055752841L153.59895833333331,131.177388381958L154.09765625,141.70939490578394L154.59635416666669,106.97689902565696L155.09505208333331,144.54424800005827L155.59375,123.05299665277656L156.09244791666666,170.6191179709001L156.59114583333331,130.12131812355736L157.08984375,120.47217428034003L157.58854166666666,130.50092249783603L158.08723958333334,149.04066436073995L158.5859375,127.16081158031118L159.08463541666666,154.87338412024758L159.58333333333334,142.2952211380005L160.08203125,125.6973800312389L160.58072916666666,144.02782633521338L161.07942708333334,143.45539210926404L161.578125,116.61195264296099L162.07682291666666,144.31540229103783L162.57552083333334,115.28127489956941L163.07421875,140.81275197809393L163.57291666666666,142.7948732549494L164.07161458333334,131.12003002166747L164.5703125,142.08771332827482L165.06901041666666,131.28394744179468L165.56770833333334,185.0985468604348L166.06640625000003,141.29148512753574L166.56510416666666,135.61255630146374L167.06380208333334,128.8719499761408L167.56250000000003,136.48620555184107L168.06119791666666,133.48627645319158L168.55989583333334,133.42983575300738L169.05859374999997,130.32122071006083L169.55729166666666,170.18052554564042L170.05598958333334,144.3555445497686L170.55468749999997,134.77818535891447L171.05338541666666,138.07815555225721L171.55208333333334,130.92203641371293L172.05078125,121.52181171070444L172.54947916666666,138.1272549715909L173.04817708333334,140.1026196306402L173.546875,135.64348512996327L174.04557291666666,122.9494790684093L174.54427083333334,168.57828486182473L175.04296875,142.34215377460828L175.54166666666666,141.8114945671775L176.04036458333334,136.1057080702348L176.5390625,141.04494607231834L177.03776041666666,148.8267114465887L177.53645833333334,139.19562924124978L178.03515625,140.64421249736438L178.53385416666666,132.21884666789663L179.03255208333334,140.0268927227367L179.53125,136.55496253967286L180.02994791666669,135.90525304620917L180.52864583333334,127.57611876401035L181.02734375,150.6774991425601L181.52604166666669,162.04139677828007L182.02473958333331,138.15236786062067L182.5234375,132.04712760231712L183.02213541666669,142.5316628629511L183.52083333333331,130.263202493841L184.01953125,123.0522662076083L184.51822916666669,142.2309250831604L185.01692708333331,137.7100173256614L185.515625,144.08502970608797L186.01432291666669,146.0984726559032L186.51302083333331,143.9719764362682L187.01171875,152.5937115539204L187.51041666666669,126.5276199687611L188.00911458333331,136.4715659575029L188.5078125,148.10240907669066L189.00651041666669,131.02559696544301L189.50520833333331,148.66104464097455L190.00390625,141.06538472609085L190.50260416666669,139.2187211296775L191.00130208333331,151.66989483833314L191.5,137.85138915668836L191.99869791666669,135.4104777249423L192.49739583333331,137.55441715934057L192.99609375,146.1587727459994L193.49479166666666,140.9149989561601L193.99348958333331,135.51039525812322L194.4921875,143.81760390888562L194.99088541666666,142.62508772069756L195.48958333333334,154.21702235828747L195.98828125,169.87588617584922L196.48697916666666,148.76696532856334L196.98567708333334,143.7466832074252L197.484375,140.46128815737637L197.98307291666666,152.39146647886795L198.48177083333334,129.88524622483686L198.98046875,136.63582711653277L199.47916666666666,150.71544085849416L199.97786458333334,139.92409330714833L200.4765625,143.02297470786354L200.97526041666666,147.60809258547695L201.47395833333334,139.90099834962325L201.97265625,144.2032252485102L202.47135416666666,137.05211948047986L202.97005208333334,149.74384673725476L203.46875000000003,148.2034299503673L203.96744791666666,154.14235198714516L204.46614583333334,139.00191702409225L204.96484375000003,143.29771416404031L205.46354166666666,148.6439206123352L205.96223958333334,160.66015642339534L206.46093749999997,145.84812945452603L206.95963541666666,139.0802664756775L207.45833333333334,137.1995251568881L207.95703124999997,143.86674322648483L208.45572916666666,146.0492873018438L208.95442708333334,142.29171929792923L209.453125,152.2616068319841L209.95182291666666,155.27916866215793L210.45052083333334,146.29516650113192L210.94921875,141.98230517994273L211.44791666666666,140.0472208890048L211.94661458333334,135.85771886652165L212.4453125,142.96104185797952L212.94401041666666,141.9980327692899L213.44270833333334,140.02860067540948L213.94140625,148.7647310256958L214.44010416666666,138.82792989557439L214.93880208333334,161.15727730230853L215.4375,142.33320121765138L215.93619791666666,153.4434763214805L216.43489583333334,138.76448244615034L216.93359375,157.7479229450226L217.43229166666669,140.83342695236206L217.93098958333334,145.47005809437144L218.4296875,151.14187121824784L218.92838541666669,148.6334496194666L219.42708333333331,147.52794464284725L219.92578125,147.23250565962357L220.42447916666669,154.17791131626478L220.92317708333331,144.88319450725209L221.421875,147.96361835653133L221.92057291666669,151.39857972751963L222.41927083333331,151.04068077694285L222.91796875,150.79532178965482L223.41666666666669,156.60189207250423L223.91536458333331,154.68843801238322L224.4140625,146.82707176208496L224.91276041666669,153.8985298503529L225.41145833333331,154.48571108904753L225.91015625,157.0487311623313L226.40885416666669,155.85414870435542L226.90755208333331,150.5290254202756L227.40625,152.71189788905056L227.90494791666669,150.3848584088412L228.40364583333331,150.84049276438625L228.90234375,147.0012553128329L229.40104166666669,143.98495564894242L229.89973958333331,148.24592467221348L230.3984375,150.5635665763508L230.89713541666666,145.33497330925684L231.39583333333331,152.93889063054866L231.89453125,150.73885423486882L232.39322916666666,152.25421030738138L232.89192708333334,142.29903602600098L233.390625,152.67412574074484L233.88932291666666,150.41969726735894L234.38802083333334,148.8087434161793L234.88671875,150.10384648496455L235.38541666666666,152.019347633015L235.88411458333334,150.05648494200273L236.3828125,154.03607912063597L236.88151041666666,156.8138995625756L237.38020833333334,153.09448619322345L237.87890625,151.6674180767753L238.37760416666666,151.30144663290545L238.87630208333334,150.86243604313245L239.375,146.58299565748734L239.87369791666666,151.68922017704358L240.37239583333334,150.71381960782136L240.87109375000003,153.4100722659718L241.36979166666666,158.60820474191146L241.86848958333334,147.47802117087622L242.36718750000003,154.72256484031678L242.86588541666666,153.68925270600752L243.36458333333334,152.30260997252032L243.86328124999997,155.20880270004272L244.36197916666666,154.3576491659338L244.86067708333334,155.25764009519057L245.35937499999997,156.8592243758115L245.85807291666666,159.80629767179488L246.35677083333334,150.84502735571428L246.85546875,154.68725065534764L247.35416666666666,152.08101500597868L247.85286458333334,157.38232900012622L248.3515625,157.46750489148226L248.85026041666666,156.77583393183622L249.34895833333334,153.3986521547491L249.84765625,153.35683647069064L250.34635416666666,151.19461825977675L250.84505208333334,157.18154059540143L251.34375,156.65201925581152L251.84244791666666,153.65459032058715L252.34114583333334,155.95902282974936L252.83984375,156.3254707509821L253.33854166666666,157.1845160852779L253.83723958333334,154.58353856693617L254.3359375,157.86774472540074L254.83463541666669,158.5573279315775L255.33333333333334,155.09768334518782L255.83203125,157.66868767521598L256.3307291666667,158.7558081832799L256.8294270833333,155.107679011605L257.328125,156.32687678120354L257.8268229166667,153.71858023296704L258.3255208333333,159.90846466151152L258.82421875,155.8461698185314L259.3229166666667,157.3720176003196L259.8216145833333,155.1639113968069L260.3203125,157.03261072852393L260.8190104166667,154.66449598399075L261.3177083333333,159.340880568461L261.81640625,157.92633110826665L262.3151041666667,159.5255619666793L262.8138020833333,156.72205413905058L263.3125,158.45950429006055L263.8111979166667,159.1810061086308L264.3098958333333,158.68340299779717L264.80859375,158.1003832632845L265.3072916666667,159.0655432137576L265.8059895833333,158.67733961235393L266.3046875,159.38685209805314L266.8033854166667,159.266708158363L267.3020833333333,158.69503219127654L267.80078125,159.04195566610858L268.29947916666663,159.1076899766922L268.7981770833333,160.1212296431715L269.296875,160.30655209909787L269.79557291666663,160.500667135282L270.2942708333333,159.15853417786684L270.79296875,158.54672017205843L271.29166666666663,159.63232377875934L271.7903645833333,160.35360922596672L272.2890625,160.53184211497958L272.78776041666663,159.77506960630416L273.2864583333333,160.06475633382797L273.78515625,160.636372885108L274.28385416666663,160.84125174920666" style="fill: none;" fill="none"></path></g></g></g></g></g></g><g transform="translate(30, 177)" clip-path="url(#clip_1)"><clipPath id="clip_1"><rect width="299" height="23"></rect></clipPath><g><g><line x1="0" y1="0" x2="0" y2="5" style="visibility: inherit;" fill="rgb(0, 0, 0)" stroke="rgb(204, 204, 204)" stroke-width="1px"></line><line x1="24.934895833333332" y1="0" x2="24.934895833333332" y2="5" style="visibility: inherit;" fill="rgb(0, 0, 0)" stroke="rgb(204, 204, 204)" stroke-width="1px"></line><line x1="49.869791666666664" y1="0" x2="49.869791666666664" y2="5" style="visibility: inherit;" fill="rgb(0, 0, 0)" stroke="rgb(204, 204, 204)" stroke-width="1px"></line><line x1="74.8046875" y1="0" x2="74.8046875" y2="5" style="visibility: inherit;" fill="rgb(0, 0, 0)" stroke="rgb(204, 204, 204)" stroke-width="1px"></line><line x1="99.73958333333333" y1="0" x2="99.73958333333333" y2="5" style="visibility: inherit;" fill="rgb(0, 0, 0)" stroke="rgb(204, 204, 204)" stroke-width="1px"></line><line x1="124.67447916666667" y1="0" x2="124.67447916666667" y2="5" style="visibility: inherit;" fill="rgb(0, 0, 0)" stroke="rgb(204, 204, 204)" stroke-width="1px"></line><line x1="149.609375" y1="0" x2="149.609375" y2="5" style="visibility: inherit;" fill="rgb(0, 0, 0)" stroke="rgb(204, 204, 204)" stroke-width="1px"></line><line x1="174.54427083333334" y1="0" x2="174.54427083333334" y2="5" style="visibility: inherit;" fill="rgb(0, 0, 0)" stroke="rgb(204, 204, 204)" stroke-width="1px"></line><line x1="199.47916666666666" y1="0" x2="199.47916666666666" y2="5" style="visibility: inherit;" fill="rgb(0, 0, 0)" stroke="rgb(204, 204, 204)" stroke-width="1px"></line><line x1="224.4140625" y1="0" x2="224.4140625" y2="5" style="visibility: inherit;" fill="rgb(0, 0, 0)" stroke="rgb(204, 204, 204)" stroke-width="1px"></line><line x1="249.34895833333334" y1="0" x2="249.34895833333334" y2="5" style="visibility: inherit;" fill="rgb(0, 0, 0)" stroke="rgb(204, 204, 204)" stroke-width="1px"></line><line x1="274.28385416666663" y1="0" x2="274.28385416666663" y2="5" style="visibility: inherit;" fill="rgb(0, 0, 0)" stroke="rgb(204, 204, 204)" stroke-width="1px"></line><line x1="299.21875" y1="0" x2="299.21875" y2="5" style="visibility: inherit;" fill="rgb(0, 0, 0)" stroke="rgb(204, 204, 204)" stroke-width="1px"></line></g><g transform="translate(0, 8)"><text x="0" y="0" dx="0em" dy="0.95em" style="text-anchor: middle; visibility: hidden; font-family: Roboto, sans-serif; font-size: 12px; font-weight: 200;" fill="rgb(33, 33, 33)" stroke="none" stroke-width="1px">-50</text><text x="24.934895833333332" y="0" dx="0em" dy="0.95em" style="text-anchor: middle; visibility: inherit; font-family: Roboto, sans-serif; font-size: 12px; font-weight: 200;" fill="rgb(33, 33, 33)" stroke="none" stroke-width="1px">0</text><text x="49.869791666666664" y="0" dx="0em" dy="0.95em" style="text-anchor: middle; visibility: inherit; font-family: Roboto, sans-serif; font-size: 12px; font-weight: 200;" fill="rgb(33, 33, 33)" stroke="none" stroke-width="1px">50</text><text x="74.8046875" y="0" dx="0em" dy="0.95em" style="text-anchor: middle; visibility: inherit; font-family: Roboto, sans-serif; font-size: 12px; font-weight: 200;" fill="rgb(33, 33, 33)" stroke="none" stroke-width="1px">100</text><text x="99.73958333333333" y="0" dx="0em" dy="0.95em" style="text-anchor: middle; visibility: inherit; font-family: Roboto, sans-serif; font-size: 12px; font-weight: 200;" fill="rgb(33, 33, 33)" stroke="none" stroke-width="1px">150</text><text x="124.67447916666667" y="0" dx="0em" dy="0.95em" style="text-anchor: middle; visibility: inherit; font-family: Roboto, sans-serif; font-size: 12px; font-weight: 200;" fill="rgb(33, 33, 33)" stroke="none" stroke-width="1px">200</text><text x="149.609375" y="0" dx="0em" dy="0.95em" style="text-anchor: middle; visibility: inherit; font-family: Roboto, sans-serif; font-size: 12px; font-weight: 200;" fill="rgb(33, 33, 33)" stroke="none" stroke-width="1px">250</text><text x="174.54427083333334" y="0" dx="0em" dy="0.95em" style="text-anchor: middle; visibility: inherit; font-family: Roboto, sans-serif; font-size: 12px; font-weight: 200;" fill="rgb(33, 33, 33)" stroke="none" stroke-width="1px">300</text><text x="199.47916666666666" y="0" dx="0em" dy="0.95em" style="text-anchor: middle; visibility: inherit; font-family: Roboto, sans-serif; font-size: 12px; font-weight: 200;" fill="rgb(33, 33, 33)" stroke="none" stroke-width="1px">350</text><text x="224.4140625" y="0" dx="0em" dy="0.95em" style="text-anchor: middle; visibility: inherit; font-family: Roboto, sans-serif; font-size: 12px; font-weight: 200;" fill="rgb(33, 33, 33)" stroke="none" stroke-width="1px">400</text><text x="249.34895833333334" y="0" dx="0em" dy="0.95em" style="text-anchor: middle; visibility: inherit; font-family: Roboto, sans-serif; font-size: 12px; font-weight: 200;" fill="rgb(33, 33, 33)" stroke="none" stroke-width="1px">450</text><text x="274.28385416666663" y="0" dx="0em" dy="0.95em" style="text-anchor: middle; visibility: inherit; font-family: Roboto, sans-serif; font-size: 12px; font-weight: 200;" fill="rgb(33, 33, 33)" stroke="none" stroke-width="1px">500</text><text x="299.21875" y="0" dx="0em" dy="0.95em" style="text-anchor: middle; visibility: hidden; font-family: Roboto, sans-serif; font-size: 12px; font-weight: 200;" fill="rgb(33, 33, 33)" stroke="none" stroke-width="1px">550</text></g><line x1="0" y1="0" x2="299.21875" y2="0" fill="rgb(0, 0, 0)" stroke="rgb(204, 204, 204)" stroke-width="1px"></line></g></g></g></g></svg>