<svg viewBox="0 0 330 200" xmlns="http://www.w3.org/2000/svg"><g><g><g><g><g><line x1="41.171875" y1="177" x2="36.171875" y2="177" style="visibility: inherit;" fill="rgb(0, 0, 0)" stroke="rgb(204, 204, 204)" stroke-width="1px"></line><line x1="41.171875" y1="154.875" x2="36.171875" y2="154.875" style="visibility: inherit;" fill="rgb(0, 0, 0)" stroke="rgb(204, 204, 204)" stroke-width="1px"></line><line x1="41.171875" y1="132.75" x2="36.171875" y2="132.75" style="visibility: inherit;" fill="rgb(0, 0, 0)" stroke="rgb(204, 204, 204)" stroke-width="1px"></line><line x1="41.171875" y1="110.625" x2="36.171875" y2="110.625" style="visibility: inherit;" fill="rgb(0, 0, 0)" stroke="rgb(204, 204, 204)" stroke-width="1px"></line><line x1="41.171875" y1="88.5" x2="36.171875" y2="88.5" style="visibility: inherit;" fill="rgb(0, 0, 0)" stroke="rgb(204, 204, 204)" stroke-width="1px"></line><line x1="41.171875" y1="66.375" x2="36.171875" y2="66.375" style="visibility: inherit;" fill="rgb(0, 0, 0)" stroke="rgb(204, 204, 204)" stroke-width="1px"></line><line x1="41.171875" y1="44.25" x2="36.171875" y2="44.25" style="visibility: inherit;" fill="rgb(0, 0, 0)" stroke="rgb(204, 204, 204)" stroke-width="1px"></line><line x1="41.171875" y1="22.125" x2="36.171875" y2="22.125" style="visibility: inherit;" fill="rgb(0, 0, 0)" stroke="rgb(204, 204, 204)" stroke-width="1px"></line><line x1="41.171875" y1="0" x2="36.171875" y2="0" style="visibility: inherit;" fill="rgb(0, 0, 0)" stroke="rgb(204, 204, 204)" stroke-width="1px"></line></g><g transform="translate(31.171875, 0)"><text x="0" y="177" dx="0em" dy="0.3em" style="text-anchor: end; visibility: hidden; font-family: Roboto, sans-serif; font-size: 12px; font-weight: 200;" fill="rgb(33, 33, 33)" stroke="none" stroke-width="1px">-50</text><text x="0" y="154.875" dx="0em" dy="0.3em" style="text-anchor: end; visibility: inherit; font-family: Roboto, sans-serif; font-size: 12px; font-weight: 200;" fill="rgb(33, 33, 33)" stroke="none" stroke-width="1px">0</text><text x="0" y="132.75" dx="0em" dy="0.3em" style="text-anchor: end; visibility: hidden; font-family: Roboto, sans-serif; font-size: 12px; font-weight: 200;" fill="rgb(33, 33, 33)" stroke="none" stroke-width="1px">50</text><text x="0" y="110.625" dx="0em" dy="0.3em" style="text-anchor: end; visibility: inherit; font-family: Roboto, sans-serif; font-size: 12px; font-weight: 200;" fill="rgb(33, 33, 33)" stroke="none" stroke-width="1px">100</text><text x="0" y="88.5" dx="0em" dy="0.3em" style="text-anchor: end; visibility: hidden; font-family: Roboto, sans-serif; font-size: 12px; font-weight: 200;" fill="rgb(33, 33, 33)" stroke="none" stroke-width="1px">150</text><text x="0" y="66.375" dx="0em" dy="0.3em" style="text-anchor: end; visibility: inherit; font-family: Roboto, sans-serif; font-size: 12px; font-weight: 200;" fill="rgb(33, 33, 33)" stroke="none" stroke-width="1px">200</text><text x="0" y="44.25" dx="0em" dy="0.3em" style="text-anchor: end; visibility: hidden; font-family: Roboto, sans-serif; font-size: 12px; font-weight: 200;" fill="rgb(33, 33, 33)" stroke="none" stroke-width="1px">250</text><text x="0" y="22.125" dx="0em" dy="0.3em" style="text-anchor: end; visibility: inherit; font-family: Roboto, sans-serif; font-size: 12px; font-weight: 200;" fill="rgb(33, 33, 33)" stroke="none" stroke-width="1px">300</text><text x="0" y="0" dx="0em" dy="0.3em" style="text-anchor: end; visibility: hidden; font-family: Roboto, sans-serif; font-size: 12px; font-weight: 200;" fill="rgb(33, 33, 33)" stroke="none" stroke-width="1px">350</text></g><line x1="41.171875" y1="0" x2="41.171875" y2="177" fill="rgb(0, 0, 0)" stroke="rgb(204, 204, 204)" stroke-width="1px"></line></g></g><g transform="translate(41, 0)" clip-path="url(#clip_0)"><clipPath id="clip_0"><rect width="288" height="177"></rect></clipPath><g><g><g><line x1="0" y1="0" x2="0" y2="177" fill="rgb(0, 0, 0)" stroke="rgb(66, 66, 66)" stroke-width="1px" opacity="0.25"></line><line x1="24.069010416666664" y1="0" x2="24.069010416666664" y2="177" fill="rgb(0, 0, 0)" stroke="rgb(66, 66, 66)" stroke-width="1px" opacity="0.25"></line><line x1="48.13802083333333" y1="0" x2="48.13802083333333" y2="177" fill="rgb(0, 0, 0)" stroke="rgb(66, 66, 66)" stroke-width="1px" opacity="0.25"></line><line x1="72.20703125" y1="0" x2="72.20703125" y2="177" fill="rgb(0, 0, 0)" stroke="rgb(66, 66, 66)" stroke-width="1px" opacity="0.25"></line><line x1="96.27604166666666" y1="0" x2="96.27604166666666" y2="177" fill="rgb(0, 0, 0)" stroke="rgb(66, 66, 66)" stroke-width="1px" opacity="0.25"></line><line x1="120.34505208333334" y1="0" x2="120.34505208333334" y2="177" fill="rgb(0, 0, 0)" stroke="rgb(66, 66, 66)" stroke-width="1px" opacity="0.25"></line><line x1="144.4140625" y1="0" x2="144.4140625" y2="177" fill="rgb(0, 0, 0)" stroke="rgb(66, 66, 66)" stroke-width="1px" opacity="0.25"></line><line x1="168.48307291666669" y1="0" x2="168.48307291666669" y2="177" fill="rgb(0, 0, 0)" stroke="rgb(66, 66, 66)" stroke-width="1px" opacity="0.25"></line><line x1="192.55208333333331" y1="0" x2="192.55208333333331" y2="177" fill="rgb(0, 0, 0)" stroke="rgb(66, 66, 66)" stroke-width="1px" opacity="0.25"></line><line x1="216.62109375" y1="0" x2="216.62109375" y2="177" fill="rgb(0, 0, 0)" stroke="rgb(66, 66, 66)" stroke-width="1px" opacity="0.25"></line><line x1="240.69010416666669" y1="0" x2="240.69010416666669" y2="177" fill="rgb(0, 0, 0)" stroke="rgb(66, 66, 66)" stroke-width="1px" opacity="0.25"></line><line x1="264.7591145833333" y1="0" x2="264.7591145833333" y2="177" fill="rgb(0, 0, 0)" stroke="rgb(66, 66, 66)" stroke-width="1px" opacity="0.25"></line><line x1="288.828125" y1="0" x2="288.828125" y2="177" fill="rgb(0, 0, 0)" stroke="rgb(66, 66, 66)" stroke-width="1px" opacity="0.25"></line></g><g><line x1="0" y1="177" x2="288.828125" y2="177" fill="rgb(0, 0, 0)" stroke="rgb(66, 66, 66)" stroke-width="1px" opacity="0.25"></line><line x1="0" y1="154.875" x2="288.828125" y2="154.875" fill="rgb(0, 0, 0)" stroke="rgb(66, 66, 66)" stroke-width="1px" opacity="0.25"></line><line x1="0" y1="132.75" x2="288.828125" y2="132.75" fill="rgb(0, 0, 0)" stroke="rgb(66, 66, 66)" stroke-width="1px" opacity="0.25"></line><line x1="0" y1="110.625" x2="288.828125" y2="110.625" fill="rgb(0, 0, 0)" stroke="rgb(66, 66, 66)" stroke-width="1px" opacity="0.25"></line><line x1="0" y1="88.5" x2="288.828125" y2="88.5" fill="rgb(0, 0, 0)" stroke="rgb(66, 66, 66)" stroke-width="1px" opacity="0.25"></line><line x1="0" y1="66.375" x2="288.828125" y2="66.375" fill="rgb(0, 0, 0)" stroke="rgb(66, 66, 66)" stroke-width="1px" opacity="0.25"></line><line x1="0" y1="44.25" x2="288.828125" y2="44.25" fill="rgb(0, 0, 0)" stroke="rgb(66, 66, 66)" stroke-width="1px" opacity="0.25"></line><line x1="0" y1="22.125" x2="288.828125" y2="22.125" fill="rgb(0, 0, 0)" stroke="rgb(66, 66, 66)" stroke-width="1px" opacity="0.25"></line><line x1="0" y1="0" x2="288.828125" y2="0" fill="rgb(0, 0, 0)" stroke="rgb(66, 66, 66)" stroke-width="1px" opacity="0.25"></line></g></g></g><g><g><line x1="0" y1="154.875" x2="288.828125" y2="154.875" fill="rgb(0, 0, 0)" stroke="rgb(153, 153, 153)" stroke-width="1.5px"></line></g></g><g><g><line x1="24.069010416666664" y1="0" x2="24.069010416666664" y2="177" fill="rgb(0, 0, 0)" stroke="rgb(153, 153, 153)" stroke-width="1.5px"></line></g></g><g><g><g><g><g><path stroke="rgb(255, 112, 67)" stroke-width="2px" d="M26.475911458333332,154.71488510996105L28.8828125,146.66001452889293L31.289713541666668,143.96281038199763L33.696614583333336,133.30843283074634L36.103515625,130.0000466022247L38.510416666666664,121.38478344129662L40.917317708333336,114.70052382314434L43.32421875,105.93291880484853L45.731119791666664,98.81901613846766L48.13802083333333,102.06336002827523L50.544921875,100.74095201747055L52.951822916666664,81.07583501149503L55.358723958333336,80.1656122568955L57.765625,76.56559829627801L60.17252604166667,78.09914564149463L62.579427083333336,88.00848058717885L64.986328125,82.90601639309918L67.39322916666667,86.52960998898138L69.80013020833333,71.44938962223532L72.20703125,60.461059354119634L74.61393229166667,64.07575110163388L77.02083333333333,66.15203589649906L79.427734375,62.586911492165385L81.83463541666667,57.89942198643253L84.24153645833334,57.75974570552242L86.6484375,51.92936675936853L89.05533854166667,57.09588205736694L91.46223958333333,62.22955518361001L93.869140625,65.69084626294274L96.27604166666666,55.611355932285264L98.68294270833333,52.031430134685095L101.08984375,45.60998171525754L103.49674479166667,63.01507976506732L105.90364583333333,56.15755431539623L108.310546875,55.3229165317989L110.71744791666667,45.50109976284133L113.12434895833333,46.60737725651892L115.53125,43.629347668536944L117.93815104166667,41.15288999819273L120.34505208333334,48.17784823560118L122.751953125,41.21392924217178L125.15885416666667,35.94030932499179L127.56575520833333,39.71402098426829L129.97265625,36.81991442111428L132.37955729166666,42.1412795705801L134.78645833333334,31.684062083736872L137.193359375,34.18404421444702L139.60026041666666,42.03639593497244L142.00716145833331,52.75681328439447L144.4140625,43.01056526547979L146.82096354166666,42.78136189488247L149.22786458333334,46.34115370005017L151.634765625,45.72721970110815L154.04166666666666,42.7378759490797L156.44856770833331,44.609616789541775L158.85546875,43.77124439318273L161.26236979166666,44.653966530319L163.66927083333334,47.248400853250374L166.076171875,47.172251571520505L168.48307291666669,49.33630447989971L170.88997395833334,52.85623801020555L173.296875,51.30738839022976L175.70377604166666,58.073584126667214L178.11067708333334,53.148361215136035L180.517578125,61.715372182572885L182.92447916666666,48.89568833639915L185.33138020833334,59.924315330330735L187.73828125,44.22330019673357L190.14518229166666,34.53956782555968L192.55208333333331,27.98517541823616L194.958984375,16.679670009242507L197.36588541666666,37.46783577324568L199.77278645833334,40.68263539339076L202.1796875,58.19189587226495L204.58658854166669,36.88171296281208L206.99348958333334,30.727717810646233L209.400390625,28.18017063389749L211.80729166666666,40.52397681576331L214.21419270833334,42.18553614438961L216.62109375,38.57296890343064L219.02799479166666,32.483739899187285L221.43489583333334,38.54058735381903L223.841796875,24.67846081072891L226.24869791666666,30.885966501085765L228.65559895833331,31.660974065690528L231.0625,32.327836819785404L233.46940104166666,31.116167668043104L235.87630208333334,34.042130074702804L238.283203125,28.56271908486074L240.69010416666669,30.033108837391055L243.09700520833334,30.014083838811583L245.50390625,31.058424576968612L247.91080729166666,36.69701131966746L250.31770833333334,33.996674229544624L252.724609375,36.76946742835176L255.13151041666666,20.98875839890558L257.53841145833337,33.862718128332624L259.9453125,25.727879381638246L262.3522135416667,35.29687791279641L264.7591145833333,28.826781380246214" style="fill: none;" fill="none"></path></g></g></g></g><g opacity="0.2"><g><g><g><path stroke="rgb(255, 112, 67)" stroke-width="2px" d="M26.475911458333332,154.71488510996105L28.8828125,141.82709218025207L31.289713541666668,141.3734944009781L33.696614583333336,120.77888483047485L36.103515625,125.68061754226684L38.510416666666664,109.46677299499511L40.917317708333336,105.14192562103271L43.32421875,93.14966651916504L45.731119791666664,88.32739151000976L48.13802083333333,106.88083259582518L50.544921875,98.76933414459226L52.951822916666664,51.68517620086671L55.358723958333336,78.80325016021729L57.765625,71.1726301574707L60.17252604166667,80.39766403198242L62.579427083333336,102.86549417495726L64.986328125,75.25447929382324L67.39322916666667,91.9640803527832L69.80013020833333,48.831356391906745L72.20703125,43.97956832885743L74.61393229166667,69.49759048461914L77.02083333333333,69.26639476776123L79.427734375,57.23929527282715L81.83463541666667,50.86824325561524L84.24153645833334,57.55023227691651L86.6484375,43.183823204040536L89.05533854166667,64.84564178466796L91.46223958333333,69.93005699157715L93.869140625,70.88277969360352L96.27604166666666,40.49212600708008L98.68294270833333,46.661542625427245L101.08984375,35.97781036376953L103.49674479166667,89.12272476196289L105.90364583333333,45.87126663208008L108.310546875,54.07095989227296L110.71744791666667,30.768374862670893L113.12434895833333,48.266793479919436L115.53125,39.16230331420899L117.93815104166667,37.43820350646972L120.34505208333334,58.715285568237306L122.751953125,30.76805076599122L125.15885416666667,28.029879455566398L127.56575520833333,45.37458847045898L129.97265625,32.47875457763672L132.37955729166666,50.123327293396L134.78645833333334,15.998235855102532L137.193359375,37.93401741027832L139.60026041666666,53.814923515319826L142.00716145833331,68.83743930816651L144.4140625,28.391193237304694L146.82096354166666,42.437556838989266L149.22786458333334,51.68084140777587L151.634765625,44.80631870269775L154.04166666666666,38.25386032104493L156.44856770833331,47.41722805023194L158.85546875,42.51368579864503L161.26236979166666,45.978049736022946L163.66927083333334,51.14005233764649L166.076171875,47.05802764892577L168.48307291666669,52.58238384246826L170.88997395833334,58.13613830566407L173.296875,48.984113960266114L175.70377604166666,68.22287773132324L178.11067708333334,45.76052684783935L180.517578125,74.56588863372802L182.92447916666666,29.666162567138677L185.33138020833334,76.46725582122802L187.73828125,20.671777496337892L190.14518229166666,20.013969268798835L192.55208333333331,18.15358680725097L194.958984375,-0.27858810424803115L197.36588541666666,68.65008441925048L199.77278645833334,45.50483482360839L202.1796875,84.45578659057617L204.58658854166669,4.916438598632814L206.99348958333334,21.49672508239746L209.400390625,24.358849868774424L211.80729166666666,59.039686088562L214.21419270833334,44.67787513732911L216.62109375,33.154118041992184L219.02799479166666,23.349896392822263L221.43489583333334,47.6258585357666L223.841796875,3.8852709960937437L226.24869791666666,40.19722503662109L228.65559895833331,32.82348541259766L231.0625,33.328130950927736L233.46940104166666,29.298663940429694L235.87630208333334,38.431073684692386L238.283203125,20.34360260009765L240.69010416666669,32.238693466186525L243.09700520833334,29.98554634094238L245.50390625,32.624935684204104L247.91080729166666,45.15489143371582L250.31770833333334,29.946168594360348L252.724609375,40.92865722656249L255.13151041666666,-2.682305145263656L257.53841145833337,53.17365772247315L259.9453125,13.525621261596687L262.3522135416667,49.6503757095337L264.7591145833333,19.121636581420894" style="fill: none;" fill="none"></path></g></g></g></g></g></g><g transform="translate(41, 177)" clip-path="url(#clip_1)"><clipPath id="clip_1"><rect width="288" height="23"></rect></clipPath><g><g><line x1="0" y1="0" x2="0" y2="5" style="visibility: inherit;" fill="rgb(0, 0, 0)" stroke="rgb(204, 204, 204)" stroke-width="1px"></line><line x1="24.069010416666664" y1="0" x2="24.069010416666664" y2="5" style="visibility: inherit;" fill="rgb(0, 0, 0)" stroke="rgb(204, 204, 204)" stroke-width="1px"></line><line x1="48.13802083333333" y1="0" x2="48.13802083333333" y2="5" style="visibility: inherit;" fill="rgb(0, 0, 0)" stroke="rgb(204, 204, 204)" stroke-width="1px"></line><line x1="72.20703125" y1="0" x2="72.20703125" y2="5" style="visibility: inherit;" fill="rgb(0, 0, 0)" stroke="rgb(204, 204, 204)" stroke-width="1px"></line><line x1="96.27604166666666" y1="0" x2="96.27604166666666" y2="5" style="visibility: inherit;" fill="rgb(0, 0, 0)" stroke="rgb(204, 204, 204)" stroke-width="1px"></line><line x1="120.34505208333334" y1="0" x2="120.34505208333334" y2="5" style="visibility: inherit;" fill="rgb(0, 0, 0)" stroke="rgb(204, 204, 204)" stroke-width="1px"></line><line x1="144.4140625" y1="0" x2="144.4140625" y2="5" style="visibility: inherit;" fill="rgb(0, 0, 0)" stroke="rgb(204, 204, 204)" stroke-width="1px"></line><line x1="168.48307291666669" y1="0" x2="168.48307291666669" y2="5" style="visibility: inherit;" fill="rgb(0, 0, 0)" stroke="rgb(204, 204, 204)" stroke-width="1px"></line><line x1="192.55208333333331" y1="0" x2="192.55208333333331" y2="5" style="visibility: inherit;" fill="rgb(0, 0, 0)" stroke="rgb(204, 204, 204)" stroke-width="1px"></line><line x1="216.62109375" y1="0" x2="216.62109375" y2="5" style="visibility: inherit;" fill="rgb(0, 0, 0)" stroke="rgb(204, 204, 204)" stroke-width="1px"></line><line x1="240.69010416666669" y1="0" x2="240.69010416666669" y2="5" style="visibility: inherit;" fill="rgb(0, 0, 0)" stroke="rgb(204, 204, 204)" stroke-width="1px"></line><line x1="264.7591145833333" y1="0" x2="264.7591145833333" y2="5" style="visibility: inherit;" fill="rgb(0, 0, 0)" stroke="rgb(204, 204, 204)" stroke-width="1px"></line><line x1="288.828125" y1="0" x2="288.828125" y2="5" style="visibility: inherit;" fill="rgb(0, 0, 0)" stroke="rgb(204, 204, 204)" stroke-width="1px"></line></g><g transform="translate(0, 8)"><text x="0" y="0" dx="0em" dy="0.95em" style="text-anchor: middle; visibility: hidden; font-family: Roboto, sans-serif; font-size: 12px; font-weight: 200;" fill="rgb(33, 33, 33)" stroke="none" stroke-width="1px">-50</text><text x="24.069010416666664" y="0" dx="0em" dy="0.95em" style="text-anchor: middle; visibility: inherit; font-family: Roboto, sans-serif; font-size: 12px; font-weight: 200;" fill="rgb(33, 33, 33)" stroke="none" stroke-width="1px">0</text><text x="48.13802083333333" y="0" dx="0em" dy="0.95em" style="text-anchor: middle; visibility: hidden; font-family: Roboto, sans-serif; font-size: 12px; font-weight: 200;" fill="rgb(33, 33, 33)" stroke="none" stroke-width="1px">50</text><text x="72.20703125" y="0" dx="0em" dy="0.95em" style="text-anchor: middle; visibility: inherit; font-family: Roboto, sans-serif; font-size: 12px; font-weight: 200;" fill="rgb(33, 33, 33)" stroke="none" stroke-width="1px">100</text><text x="96.27604166666666" y="0" dx="0em" dy="0.95em" style="text-anchor: middle; visibility: hidden; font-family: Roboto, sans-serif; font-size: 12px; font-weight: 200;" fill="rgb(33, 33, 33)" stroke="none" stroke-width="1px">150</text><text x="120.34505208333334" y="0" dx="0em" dy="0.95em" style="text-anchor: middle; visibility: inherit; font-family: Roboto, sans-serif; font-size: 12px; font-weight: 200;" fill="rgb(33, 33, 33)" stroke="none" stroke-width="1px">200</text><text x="144.4140625" y="0" dx="0em" dy="0.95em" style="text-anchor: middle; visibility: hidden; font-family: Roboto, sans-serif; font-size: 12px; font-weight: 200;" fill="rgb(33, 33, 33)" stroke="none" stroke-width="1px">250</text><text x="168.48307291666669" y="0" dx="0em" dy="0.95em" style="text-anchor: middle; visibility: inherit; font-family: Roboto, sans-serif; font-size: 12px; font-weight: 200;" fill="rgb(33, 33, 33)" stroke="none" stroke-width="1px">300</text><text x="192.55208333333331" y="0" dx="0em" dy="0.95em" style="text-anchor: middle; visibility: hidden; font-family: Roboto, sans-serif; font-size: 12px; font-weight: 200;" fill="rgb(33, 33, 33)" stroke="none" stroke-width="1px">350</text><text x="216.62109375" y="0" dx="0em" dy="0.95em" style="text-anchor: middle; visibility: inherit; font-family: Roboto, sans-serif; font-size: 12px; font-weight: 200;" fill="rgb(33, 33, 33)" stroke="none" stroke-width="1px">400</text><text x="240.69010416666669" y="0" dx="0em" dy="0.95em" style="text-anchor: middle; visibility: hidden; font-family: Roboto, sans-serif; font-size: 12px; font-weight: 200;" fill="rgb(33, 33, 33)" stroke="none" stroke-width="1px">450</text><text x="264.7591145833333" y="0" dx="0em" dy="0.95em" style="text-anchor: middle; visibility: inherit; font-family: Roboto, sans-serif; font-size: 12px; font-weight: 200;" fill="rgb(33, 33, 33)" stroke="none" stroke-width="1px">500</text><text x="288.828125" y="0" dx="0em" dy="0.95em" style="text-anchor: middle; visibility: hidden; font-family: Roboto, sans-serif; font-size: 12px; font-weight: 200;" fill="rgb(33, 33, 33)" stroke="none" stroke-width="1px">550</text></g><line x1="0" y1="0" x2="288.828125" y2="0" fill="rgb(0, 0, 0)" stroke="rgb(204, 204, 204)" stroke-width="1px"></line></g></g></g></g></svg>