<svg viewBox="0 0 330 200" xmlns="http://www.w3.org/2000/svg"><g><g><g><g><g><line x1="41.171875" y1="177" x2="36.171875" y2="177" style="visibility: inherit;" fill="rgb(0, 0, 0)" stroke="rgb(204, 204, 204)" stroke-width="1px"></line><line x1="41.171875" y1="154.875" x2="36.171875" y2="154.875" style="visibility: inherit;" fill="rgb(0, 0, 0)" stroke="rgb(204, 204, 204)" stroke-width="1px"></line><line x1="41.171875" y1="132.75" x2="36.171875" y2="132.75" style="visibility: inherit;" fill="rgb(0, 0, 0)" stroke="rgb(204, 204, 204)" stroke-width="1px"></line><line x1="41.171875" y1="110.625" x2="36.171875" y2="110.625" style="visibility: inherit;" fill="rgb(0, 0, 0)" stroke="rgb(204, 204, 204)" stroke-width="1px"></line><line x1="41.171875" y1="88.5" x2="36.171875" y2="88.5" style="visibility: inherit;" fill="rgb(0, 0, 0)" stroke="rgb(204, 204, 204)" stroke-width="1px"></line><line x1="41.171875" y1="66.375" x2="36.171875" y2="66.375" style="visibility: inherit;" fill="rgb(0, 0, 0)" stroke="rgb(204, 204, 204)" stroke-width="1px"></line><line x1="41.171875" y1="44.25" x2="36.171875" y2="44.25" style="visibility: inherit;" fill="rgb(0, 0, 0)" stroke="rgb(204, 204, 204)" stroke-width="1px"></line><line x1="41.171875" y1="22.125" x2="36.171875" y2="22.125" style="visibility: inherit;" fill="rgb(0, 0, 0)" stroke="rgb(204, 204, 204)" stroke-width="1px"></line><line x1="41.171875" y1="0" x2="36.171875" y2="0" style="visibility: inherit;" fill="rgb(0, 0, 0)" stroke="rgb(204, 204, 204)" stroke-width="1px"></line></g><g transform="translate(31.171875, 0)"><text x="0" y="177" dx="0em" dy="0.3em" style="text-anchor: end; visibility: hidden; font-family: Roboto, sans-serif; font-size: 12px; font-weight: 200;" fill="rgb(33, 33, 33)" stroke="none" stroke-width="1px">-50</text><text x="0" y="154.875" dx="0em" dy="0.3em" style="text-anchor: end; visibility: inherit; font-family: Roboto, sans-serif; font-size: 12px; font-weight: 200;" fill="rgb(33, 33, 33)" stroke="none" stroke-width="1px">0</text><text x="0" y="132.75" dx="0em" dy="0.3em" style="text-anchor: end; visibility: hidden; font-family: Roboto, sans-serif; font-size: 12px; font-weight: 200;" fill="rgb(33, 33, 33)" stroke="none" stroke-width="1px">50</text><text x="0" y="110.625" dx="0em" dy="0.3em" style="text-anchor: end; visibility: inherit; font-family: Roboto, sans-serif; font-size: 12px; font-weight: 200;" fill="rgb(33, 33, 33)" stroke="none" stroke-width="1px">100</text><text x="0" y="88.5" dx="0em" dy="0.3em" style="text-anchor: end; visibility: hidden; font-family: Roboto, sans-serif; font-size: 12px; font-weight: 200;" fill="rgb(33, 33, 33)" stroke="none" stroke-width="1px">150</text><text x="0" y="66.375" dx="0em" dy="0.3em" style="text-anchor: end; visibility: inherit; font-family: Roboto, sans-serif; font-size: 12px; font-weight: 200;" fill="rgb(33, 33, 33)" stroke="none" stroke-width="1px">200</text><text x="0" y="44.25" dx="0em" dy="0.3em" style="text-anchor: end; visibility: hidden; font-family: Roboto, sans-serif; font-size: 12px; font-weight: 200;" fill="rgb(33, 33, 33)" stroke="none" stroke-width="1px">250</text><text x="0" y="22.125" dx="0em" dy="0.3em" style="text-anchor: end; visibility: inherit; font-family: Roboto, sans-serif; font-size: 12px; font-weight: 200;" fill="rgb(33, 33, 33)" stroke="none" stroke-width="1px">300</text><text x="0" y="0" dx="0em" dy="0.3em" style="text-anchor: end; visibility: hidden; font-family: Roboto, sans-serif; font-size: 12px; font-weight: 200;" fill="rgb(33, 33, 33)" stroke="none" stroke-width="1px">350</text></g><line x1="41.171875" y1="0" x2="41.171875" y2="177" fill="rgb(0, 0, 0)" stroke="rgb(204, 204, 204)" stroke-width="1px"></line></g></g><g transform="translate(41, 0)" clip-path="url(#clip_0)"><clipPath id="clip_0"><rect width="288" height="177"></rect></clipPath><g><g><g><line x1="0" y1="0" x2="0" y2="177" fill="rgb(0, 0, 0)" stroke="rgb(66, 66, 66)" stroke-width="1px" opacity="0.25"></line><line x1="24.069010416666664" y1="0" x2="24.069010416666664" y2="177" fill="rgb(0, 0, 0)" stroke="rgb(66, 66, 66)" stroke-width="1px" opacity="0.25"></line><line x1="48.13802083333333" y1="0" x2="48.13802083333333" y2="177" fill="rgb(0, 0, 0)" stroke="rgb(66, 66, 66)" stroke-width="1px" opacity="0.25"></line><line x1="72.20703125" y1="0" x2="72.20703125" y2="177" fill="rgb(0, 0, 0)" stroke="rgb(66, 66, 66)" stroke-width="1px" opacity="0.25"></line><line x1="96.27604166666666" y1="0" x2="96.27604166666666" y2="177" fill="rgb(0, 0, 0)" stroke="rgb(66, 66, 66)" stroke-width="1px" opacity="0.25"></line><line x1="120.34505208333334" y1="0" x2="120.34505208333334" y2="177" fill="rgb(0, 0, 0)" stroke="rgb(66, 66, 66)" stroke-width="1px" opacity="0.25"></line><line x1="144.4140625" y1="0" x2="144.4140625" y2="177" fill="rgb(0, 0, 0)" stroke="rgb(66, 66, 66)" stroke-width="1px" opacity="0.25"></line><line x1="168.48307291666669" y1="0" x2="168.48307291666669" y2="177" fill="rgb(0, 0, 0)" stroke="rgb(66, 66, 66)" stroke-width="1px" opacity="0.25"></line><line x1="192.55208333333331" y1="0" x2="192.55208333333331" y2="177" fill="rgb(0, 0, 0)" stroke="rgb(66, 66, 66)" stroke-width="1px" opacity="0.25"></line><line x1="216.62109375" y1="0" x2="216.62109375" y2="177" fill="rgb(0, 0, 0)" stroke="rgb(66, 66, 66)" stroke-width="1px" opacity="0.25"></line><line x1="240.69010416666669" y1="0" x2="240.69010416666669" y2="177" fill="rgb(0, 0, 0)" stroke="rgb(66, 66, 66)" stroke-width="1px" opacity="0.25"></line><line x1="264.7591145833333" y1="0" x2="264.7591145833333" y2="177" fill="rgb(0, 0, 0)" stroke="rgb(66, 66, 66)" stroke-width="1px" opacity="0.25"></line><line x1="288.828125" y1="0" x2="288.828125" y2="177" fill="rgb(0, 0, 0)" stroke="rgb(66, 66, 66)" stroke-width="1px" opacity="0.25"></line></g><g><line x1="0" y1="177" x2="288.828125" y2="177" fill="rgb(0, 0, 0)" stroke="rgb(66, 66, 66)" stroke-width="1px" opacity="0.25"></line><line x1="0" y1="154.875" x2="288.828125" y2="154.875" fill="rgb(0, 0, 0)" stroke="rgb(66, 66, 66)" stroke-width="1px" opacity="0.25"></line><line x1="0" y1="132.75" x2="288.828125" y2="132.75" fill="rgb(0, 0, 0)" stroke="rgb(66, 66, 66)" stroke-width="1px" opacity="0.25"></line><line x1="0" y1="110.625" x2="288.828125" y2="110.625" fill="rgb(0, 0, 0)" stroke="rgb(66, 66, 66)" stroke-width="1px" opacity="0.25"></line><line x1="0" y1="88.5" x2="288.828125" y2="88.5" fill="rgb(0, 0, 0)" stroke="rgb(66, 66, 66)" stroke-width="1px" opacity="0.25"></line><line x1="0" y1="66.375" x2="288.828125" y2="66.375" fill="rgb(0, 0, 0)" stroke="rgb(66, 66, 66)" stroke-width="1px" opacity="0.25"></line><line x1="0" y1="44.25" x2="288.828125" y2="44.25" fill="rgb(0, 0, 0)" stroke="rgb(66, 66, 66)" stroke-width="1px" opacity="0.25"></line><line x1="0" y1="22.125" x2="288.828125" y2="22.125" fill="rgb(0, 0, 0)" stroke="rgb(66, 66, 66)" stroke-width="1px" opacity="0.25"></line><line x1="0" y1="0" x2="288.828125" y2="0" fill="rgb(0, 0, 0)" stroke="rgb(66, 66, 66)" stroke-width="1px" opacity="0.25"></line></g></g></g><g><g><line x1="0" y1="154.875" x2="288.828125" y2="154.875" fill="rgb(0, 0, 0)" stroke="rgb(153, 153, 153)" stroke-width="1.5px"></line></g></g><g><g><line x1="24.069010416666664" y1="0" x2="24.069010416666664" y2="177" fill="rgb(0, 0, 0)" stroke="rgb(153, 153, 153)" stroke-width="1.5px"></line></g></g><g><g><g><g><g><path stroke="rgb(255, 112, 67)" stroke-width="2px" d="M26.475911458333332,153.4485809880495L28.8828125,149.65232716195285L31.289713541666668,149.3896720953985L33.696614583333336,137.98319996856372L36.103515625,136.97989326971634L38.510416666666664,132.58512936105782L40.917317708333336,127.66651530546741L43.32421875,111.02722257205969L45.731119791666664,93.40127426612777L48.13802083333333,99.03626797505761L50.544921875,99.31078949401416L52.951822916666664,76.82643782592837L55.358723958333336,76.90164471308537L57.765625,75.78088895247568L60.17252604166667,85.42532325055356L62.579427083333336,89.05376597478285L64.986328125,93.62918551692341L67.39322916666667,95.2576864662649L69.80013020833333,74.70997401218199L72.20703125,65.78005851969824L74.61393229166667,63.96316018686088L77.02083333333333,70.4102275515469L79.427734375,65.7325541187359L81.83463541666667,58.61824117729569L84.24153645833334,64.99952756108283L86.6484375,59.91377193293513L89.05533854166667,60.825830697858684L91.46223958333333,60.53501294959837L93.869140625,71.88943419458066L96.27604166666666,50.12076959586596L98.68294270833333,53.83556570485614L101.08984375,50.5255925469353L103.49674479166667,65.80919304997535L105.90364583333333,63.9778691710703L108.310546875,58.269201949550094L110.71744791666667,49.22778157451988L113.12434895833333,46.815853698462085L115.53125,43.25934884527556L117.93815104166667,38.2385223513993L120.34505208333334,44.31906927529097L122.751953125,38.888614870145275L125.15885416666667,43.34419971646765L127.56575520833333,45.559183389480125L129.97265625,42.608020500706075L132.37955729166666,49.62119624280301L134.78645833333334,30.296755067474685L137.193359375,31.681519593271013L139.60026041666666,38.24439539868807L142.00716145833331,55.47360119818521L144.4140625,49.218498212757034L146.82096354166666,49.06051395145715L149.22786458333334,51.99106867056544L151.634765625,55.77330424250698L154.04166666666666,49.38430825960884L156.44856770833331,53.036263788775386L158.85546875,53.90259469904682L161.26236979166666,50.083430110442855L163.66927083333334,47.095055975811206L166.076171875,43.54819041532042L168.48307291666669,44.46670680595498L170.88997395833334,50.93896845002828L173.296875,58.7186157196753L175.70377604166666,58.89404598820167L178.11067708333334,56.86845760695909L180.517578125,64.22706873531804L182.92447916666666,48.004288207743514L185.33138020833334,55.35912237838149L187.73828125,46.8651778032496L190.14518229166666,36.43244579327788L192.55208333333331,33.439166359023325L194.958984375,14.882414671371011L197.36588541666666,45.84547854220249L199.77278645833334,47.873492768021706L202.1796875,66.1459511905982L204.58658854166669,41.89629498804053L206.99348958333334,27.28583576967979L209.400390625,33.39467686158813L211.80729166666666,38.38589344300269L214.21419270833334,39.26182784436608L216.62109375,31.927584865799325L219.02799479166666,32.25328694242881L221.43489583333334,37.753125623098896L223.841796875,26.65914176179881L226.24869791666666,27.31770533295819L228.65559895833331,21.64849224884718L231.0625,22.12458131122238L233.46940104166666,28.889359504506864L235.87630208333334,37.08145838458888L238.283203125,39.823284866568756L240.69010416666669,29.917783053730304L243.09700520833334,31.68580069161319L245.50390625,26.915231544118306L247.91080729166666,37.36001073738407L250.31770833333334,31.2780196260242L252.724609375,36.653766945292254L255.13151041666666,15.54198001580816L257.53841145833337,36.71220819686285L259.9453125,27.444946622219284L262.3522135416667,35.42852510223782L264.7591145833333,25.406870554506764" style="fill: none;" fill="none"></path></g></g></g></g><g opacity="0.2"><g><g><g><path stroke="rgb(255, 112, 67)" stroke-width="2px" d="M26.475911458333332,153.4485809880495L28.8828125,147.37457486629486L31.289713541666668,149.13752323150635L33.696614583333336,124.56918874740602L36.103515625,135.66997604370118L38.510416666666664,126.50558876037597L40.917317708333336,120.63281850814819L43.32421875,86.76697402954102L45.731119791666664,67.40642417907713L48.13802083333333,107.40357690811157L50.544921875,99.72008188247682L52.951822916666664,43.22226917266847L55.358723958333336,77.01420948028564L57.765625,74.10195098876954L60.17252604166667,99.88063802719115L62.579427083333336,94.49387100219727L64.986328125,100.49037866592407L67.39322916666667,97.7000244140625L69.80013020833333,43.89153556823731L72.20703125,52.38600151062011L74.61393229166667,61.23791233062743L77.02083333333333,80.08061645507813L79.427734375,58.71613632202149L81.83463541666667,47.94685604095459L84.24153645833334,74.57141178131103L86.6484375,52.285160179138195L89.05533854166667,62.19391651153564L91.46223958333333,60.09878677368164L93.869140625,88.92105560302734L96.27604166666666,17.467784729003913L98.68294270833333,59.407758636474604L101.08984375,45.560633468627934L103.49674479166667,88.73459197998046L105.90364583333333,61.23088348388671L108.310546875,49.70620136260987L110.71744791666667,35.66565124511718L113.12434895833333,43.197961921691906L115.53125,37.924591598510744L117.93815104166667,30.707282638549813L120.34505208333334,53.439889640808104L122.751953125,30.74293327331543L125.15885416666667,50.02757698059082L127.56575520833333,48.88165889739991L129.97265625,38.18127616882325L132.37955729166666,60.14095985412599L134.78645833333334,1.3100933074951093L137.193359375,33.758666381835944L139.60026041666666,48.088709106445314L142.00716145833331,81.31740989685058L144.4140625,39.8358437347412L146.82096354166666,48.823537559509276L149.22786458333334,56.38690074920655L151.634765625,61.44665760040283L154.04166666666666,39.800814285278314L156.44856770833331,58.51419708251953L158.85546875,55.202091064453136L161.26236979166666,44.35468322753907L163.66927083333334,42.61249477386475L166.076171875,38.22789207458495L168.48307291666669,45.84448139190673L170.88997395833334,60.64736091613771L173.296875,70.38808662414552L175.70377604166666,59.15719139099122L178.11067708333334,53.83007503509521L180.517578125,75.26498542785646L182.92447916666666,23.67011741638184L185.33138020833334,66.39137363433838L187.73828125,34.124260940551764L190.14518229166666,20.78334777832031L192.55208333333331,28.94924720764161L194.958984375,-12.95271286010741L197.36588541666666,92.2900743484497L199.77278645833334,50.9155141067505L202.1796875,93.55463882446288L204.58658854166669,5.521810684204095L206.99348958333334,5.370146942138668L209.400390625,42.55793849945068L211.80729166666666,45.87271831512451L214.21419270833334,40.57572944641114L216.62109375,20.926220397949216L219.02799479166666,32.74184005737304L221.43489583333334,46.002883644104L223.841796875,10.018165969848624L226.24869791666666,28.305550689697274L228.65559895833331,13.144672622680662L231.0625,22.83871490478516L233.46940104166666,39.036526794433605L235.87630208333334,49.36960670471191L238.283203125,43.93602458953857L240.69010416666669,15.059530334472662L243.09700520833334,34.3378271484375L245.50390625,19.759377822875987L247.91080729166666,53.02717952728272L250.31770833333334,22.155032958984382L252.724609375,44.717387924194334L255.13151041666666,-16.12570037841796L257.53841145833337,68.46755046844483L259.9453125,13.544054260253905L262.3522135416667,47.40389282226563L264.7591145833333,10.374388732910159" style="fill: none;" fill="none"></path></g></g></g></g></g></g><g transform="translate(41, 177)" clip-path="url(#clip_1)"><clipPath id="clip_1"><rect width="288" height="23"></rect></clipPath><g><g><line x1="0" y1="0" x2="0" y2="5" style="visibility: inherit;" fill="rgb(0, 0, 0)" stroke="rgb(204, 204, 204)" stroke-width="1px"></line><line x1="24.069010416666664" y1="0" x2="24.069010416666664" y2="5" style="visibility: inherit;" fill="rgb(0, 0, 0)" stroke="rgb(204, 204, 204)" stroke-width="1px"></line><line x1="48.13802083333333" y1="0" x2="48.13802083333333" y2="5" style="visibility: inherit;" fill="rgb(0, 0, 0)" stroke="rgb(204, 204, 204)" stroke-width="1px"></line><line x1="72.20703125" y1="0" x2="72.20703125" y2="5" style="visibility: inherit;" fill="rgb(0, 0, 0)" stroke="rgb(204, 204, 204)" stroke-width="1px"></line><line x1="96.27604166666666" y1="0" x2="96.27604166666666" y2="5" style="visibility: inherit;" fill="rgb(0, 0, 0)" stroke="rgb(204, 204, 204)" stroke-width="1px"></line><line x1="120.34505208333334" y1="0" x2="120.34505208333334" y2="5" style="visibility: inherit;" fill="rgb(0, 0, 0)" stroke="rgb(204, 204, 204)" stroke-width="1px"></line><line x1="144.4140625" y1="0" x2="144.4140625" y2="5" style="visibility: inherit;" fill="rgb(0, 0, 0)" stroke="rgb(204, 204, 204)" stroke-width="1px"></line><line x1="168.48307291666669" y1="0" x2="168.48307291666669" y2="5" style="visibility: inherit;" fill="rgb(0, 0, 0)" stroke="rgb(204, 204, 204)" stroke-width="1px"></line><line x1="192.55208333333331" y1="0" x2="192.55208333333331" y2="5" style="visibility: inherit;" fill="rgb(0, 0, 0)" stroke="rgb(204, 204, 204)" stroke-width="1px"></line><line x1="216.62109375" y1="0" x2="216.62109375" y2="5" style="visibility: inherit;" fill="rgb(0, 0, 0)" stroke="rgb(204, 204, 204)" stroke-width="1px"></line><line x1="240.69010416666669" y1="0" x2="240.69010416666669" y2="5" style="visibility: inherit;" fill="rgb(0, 0, 0)" stroke="rgb(204, 204, 204)" stroke-width="1px"></line><line x1="264.7591145833333" y1="0" x2="264.7591145833333" y2="5" style="visibility: inherit;" fill="rgb(0, 0, 0)" stroke="rgb(204, 204, 204)" stroke-width="1px"></line><line x1="288.828125" y1="0" x2="288.828125" y2="5" style="visibility: inherit;" fill="rgb(0, 0, 0)" stroke="rgb(204, 204, 204)" stroke-width="1px"></line></g><g transform="translate(0, 8)"><text x="0" y="0" dx="0em" dy="0.95em" style="text-anchor: middle; visibility: hidden; font-family: Roboto, sans-serif; font-size: 12px; font-weight: 200;" fill="rgb(33, 33, 33)" stroke="none" stroke-width="1px">-50</text><text x="24.069010416666664" y="0" dx="0em" dy="0.95em" style="text-anchor: middle; visibility: inherit; font-family: Roboto, sans-serif; font-size: 12px; font-weight: 200;" fill="rgb(33, 33, 33)" stroke="none" stroke-width="1px">0</text><text x="48.13802083333333" y="0" dx="0em" dy="0.95em" style="text-anchor: middle; visibility: hidden; font-family: Roboto, sans-serif; font-size: 12px; font-weight: 200;" fill="rgb(33, 33, 33)" stroke="none" stroke-width="1px">50</text><text x="72.20703125" y="0" dx="0em" dy="0.95em" style="text-anchor: middle; visibility: inherit; font-family: Roboto, sans-serif; font-size: 12px; font-weight: 200;" fill="rgb(33, 33, 33)" stroke="none" stroke-width="1px">100</text><text x="96.27604166666666" y="0" dx="0em" dy="0.95em" style="text-anchor: middle; visibility: hidden; font-family: Roboto, sans-serif; font-size: 12px; font-weight: 200;" fill="rgb(33, 33, 33)" stroke="none" stroke-width="1px">150</text><text x="120.34505208333334" y="0" dx="0em" dy="0.95em" style="text-anchor: middle; visibility: inherit; font-family: Roboto, sans-serif; font-size: 12px; font-weight: 200;" fill="rgb(33, 33, 33)" stroke="none" stroke-width="1px">200</text><text x="144.4140625" y="0" dx="0em" dy="0.95em" style="text-anchor: middle; visibility: hidden; font-family: Roboto, sans-serif; font-size: 12px; font-weight: 200;" fill="rgb(33, 33, 33)" stroke="none" stroke-width="1px">250</text><text x="168.48307291666669" y="0" dx="0em" dy="0.95em" style="text-anchor: middle; visibility: inherit; font-family: Roboto, sans-serif; font-size: 12px; font-weight: 200;" fill="rgb(33, 33, 33)" stroke="none" stroke-width="1px">300</text><text x="192.55208333333331" y="0" dx="0em" dy="0.95em" style="text-anchor: middle; visibility: hidden; font-family: Roboto, sans-serif; font-size: 12px; font-weight: 200;" fill="rgb(33, 33, 33)" stroke="none" stroke-width="1px">350</text><text x="216.62109375" y="0" dx="0em" dy="0.95em" style="text-anchor: middle; visibility: inherit; font-family: Roboto, sans-serif; font-size: 12px; font-weight: 200;" fill="rgb(33, 33, 33)" stroke="none" stroke-width="1px">400</text><text x="240.69010416666669" y="0" dx="0em" dy="0.95em" style="text-anchor: middle; visibility: hidden; font-family: Roboto, sans-serif; font-size: 12px; font-weight: 200;" fill="rgb(33, 33, 33)" stroke="none" stroke-width="1px">450</text><text x="264.7591145833333" y="0" dx="0em" dy="0.95em" style="text-anchor: middle; visibility: inherit; font-family: Roboto, sans-serif; font-size: 12px; font-weight: 200;" fill="rgb(33, 33, 33)" stroke="none" stroke-width="1px">500</text><text x="288.828125" y="0" dx="0em" dy="0.95em" style="text-anchor: middle; visibility: hidden; font-family: Roboto, sans-serif; font-size: 12px; font-weight: 200;" fill="rgb(33, 33, 33)" stroke="none" stroke-width="1px">550</text></g><line x1="0" y1="0" x2="288.828125" y2="0" fill="rgb(0, 0, 0)" stroke="rgb(204, 204, 204)" stroke-width="1px"></line></g></g></g></g></svg>